<svg width="176" height="145" viewBox="0 0 176 145" fill="none" xmlns="http://www.w3.org/2000/svg">
<path d="M41.3147 21.5931L41.3221 21.5974L50.7461 27.0163C51.0437 27.202 51.3884 27.2983 51.7391 27.2937C52.083 27.2983 52.4223 27.2148 52.7247 27.0511L62.1586 21.6278L62.166 21.6229C62.4622 21.449 62.7082 21.2014 62.8801 20.9041C63.052 20.6068 63.1438 20.27 63.1467 19.9266V8.87287C63.1439 8.52938 63.0521 8.19245 62.8802 7.89504C62.7084 7.59763 62.4623 7.34991 62.166 7.17602L62.1586 7.17105L52.7247 1.74843L52.7123 1.74097L52.6993 1.73479C52.4017 1.58281 52.0721 1.50407 51.7379 1.50514C51.4037 1.50407 51.0741 1.58281 50.7765 1.73479L50.7635 1.74097L50.7511 1.74843L41.3172 7.17105L41.3097 7.17602C41.0135 7.34991 40.7674 7.59763 40.5955 7.89504C40.4237 8.19245 40.3319 8.52938 40.3291 8.87287V19.8969C40.3325 20.2407 40.4251 20.5778 40.5978 20.8752C40.7706 21.1725 41.0176 21.4199 41.3147 21.5931Z" fill="#B6B8C2"/>
<path d="M51.7397 27.7902C51.2961 27.7956 50.8603 27.6735 50.4842 27.4383L41.0745 22.0281C41.069 22.0253 41.0638 22.022 41.059 22.0182C40.6902 21.7992 40.384 21.489 40.1699 21.1173C39.9559 20.7456 39.8412 20.3251 39.8369 19.8962V8.87158C39.8412 8.4427 39.9559 8.02219 40.1699 7.65052C40.384 7.27885 40.6902 6.96857 41.059 6.74961L50.5053 1.31704C51.3667 0.882589 52.163 0.909932 52.9258 1.28977L62.4068 6.74027C62.78 6.95831 63.0904 7.26918 63.3079 7.64264C63.5254 8.0161 63.6426 8.43943 63.6481 8.87158V19.926C63.6438 20.355 63.529 20.7757 63.3147 21.1474C63.1004 21.5191 62.794 21.8293 62.4248 22.048L52.9792 27.4805C52.5995 27.6885 52.1726 27.7952 51.7397 27.7902ZM51.7397 2.00036C51.4824 1.99919 51.2287 2.0601 50.9999 2.17789L41.566 7.60173C41.3428 7.73059 41.1572 7.91563 41.0275 8.13837C40.8979 8.36112 40.8287 8.61384 40.8268 8.87158V19.8962C40.8288 20.1541 40.8981 20.4069 41.0277 20.6299C41.1573 20.8528 41.3429 21.038 41.566 21.1673C41.5688 21.1682 41.5713 21.1697 41.5735 21.1717L41.5816 21.1766L50.9894 26.5856C51.2136 26.7194 51.4686 26.7929 51.7297 26.7988C51.9907 26.8048 52.2488 26.7431 52.4789 26.6197L61.9128 21.1964C62.1363 21.0676 62.3221 20.8826 62.452 20.6597C62.5819 20.4369 62.6513 20.1839 62.6532 19.926V8.87158C62.6513 8.61364 62.5819 8.36074 62.452 8.13789C62.3221 7.91503 62.1363 7.72998 61.9128 7.60112L52.4808 2.18038C52.2518 2.06183 51.9976 2.00007 51.7397 2.00036Z" fill="#B6B8C2"/>
<path d="M48.5148 13.0324L50.6734 14.8062L54.9559 10.3723L56.9221 12.3L51.795 17.6202L50.908 18.5456L49.9442 17.7357L46.7832 15.191L48.5148 13.0324Z" fill="#E7E7EB"/>
<path d="M125.911 27.2106C132.953 27.2106 138.663 21.5006 138.663 14.4581C138.663 7.41559 132.953 1.70624 125.911 1.70624C118.868 1.70624 113.158 7.41621 113.158 14.4581C113.158 21.5 118.868 27.2106 125.911 27.2106Z" fill="#B6B8C2"/>
<path d="M125.911 27.7065C118.606 27.7065 112.662 21.7638 112.662 14.4581C112.662 7.15244 118.606 1.20972 125.911 1.20972C133.216 1.20972 139.16 7.15306 139.16 14.4581C139.16 21.7632 133.216 27.7065 125.911 27.7065ZM125.911 2.20276C119.153 2.20276 113.655 7.70047 113.655 14.4581C113.655 21.2157 119.153 26.7135 125.911 26.7135C132.669 26.7135 138.167 21.2157 138.167 14.4581C138.167 7.70047 132.669 2.20276 125.911 2.20276Z" fill="#B6B8C2"/>
<path d="M129.419 19.8553L125.912 17.3106L122.441 19.8553L123.752 15.7304L120.282 13.1858H124.601L125.913 9.09875L127.261 13.1858H131.579L128.071 15.7304L129.419 19.8553Z" fill="#E7E7EB"/>
<path d="M151.443 80.134L151.451 80.1389L160.876 85.5578C161.173 85.7435 161.518 85.8396 161.869 85.8346C162.212 85.8392 162.552 85.7557 162.854 85.592L172.288 80.1687L172.295 80.1644C172.591 79.9907 172.838 79.743 173.01 79.4455C173.182 79.1481 173.274 78.8112 173.277 78.4675V67.4106C173.274 67.067 173.182 66.7301 173.01 66.4326C172.838 66.1352 172.591 65.8875 172.295 65.7138L172.288 65.7094L162.857 60.2856L162.844 60.2787L162.831 60.272C162.533 60.1203 162.204 60.0416 161.869 60.0423C161.535 60.0416 161.205 60.1208 160.908 60.2732L160.895 60.28L160.882 60.2868L151.448 65.71L151.44 65.7144C151.145 65.8886 150.899 66.1365 150.728 66.4337C150.557 66.731 150.465 67.0676 150.463 67.4106V78.4346C150.465 78.7785 150.557 79.1159 150.728 79.4137C150.9 79.7116 151.146 79.9598 151.443 80.134Z" fill="#B6B8C2"/>
<path d="M161.87 86.3281C161.427 86.3336 160.991 86.2116 160.615 85.9768L151.204 80.5684L151.188 80.5591C150.82 80.3398 150.514 80.0294 150.3 79.6576C150.086 79.2859 149.971 78.8654 149.967 78.4365V67.4107C149.971 66.9818 150.086 66.5613 150.3 66.1896C150.514 65.8179 150.82 65.5074 151.188 65.288L160.636 59.8561C161.495 59.4217 162.294 59.4483 163.056 59.8288L172.539 65.2788C172.912 65.4974 173.221 65.8085 173.438 66.1821C173.655 66.5556 173.771 66.9788 173.776 67.4107V78.4644C173.772 78.8935 173.657 79.3142 173.443 79.686C173.229 80.0578 172.923 80.3681 172.553 80.587L163.107 86.0196L163.084 86.0326C162.71 86.2317 162.293 86.3333 161.87 86.3281ZM151.692 79.702L161.119 85.1228C161.343 85.2559 161.597 85.329 161.857 85.335C162.118 85.3409 162.375 85.2796 162.604 85.1569L162.624 85.1463L172.038 79.733C172.261 79.604 172.447 79.4189 172.577 79.196C172.706 78.9732 172.775 78.7204 172.777 78.4626V67.4107C172.775 67.1527 172.706 66.8997 172.576 66.6767C172.446 66.4538 172.26 66.2686 172.037 66.1395L162.603 60.717C162.375 60.5979 162.122 60.5356 161.864 60.5356C161.607 60.5356 161.354 60.5979 161.125 60.717L151.692 66.1408C151.47 66.2708 151.286 66.4562 151.158 66.6788C151.029 66.9015 150.961 67.1537 150.96 67.4107V78.4346C150.962 78.691 151.031 78.9423 151.16 79.164C151.289 79.3857 151.473 79.5702 151.694 79.6995L151.692 79.702Z" fill="#B6B8C2"/>
<path d="M159.926 78.5339H163.936C163.938 78.2701 163.887 78.0087 163.787 77.7646C163.687 77.5206 163.539 77.2989 163.353 77.1123C163.166 76.9258 162.944 76.7782 162.7 76.6781C162.456 76.578 162.195 76.5274 161.931 76.5292C161.667 76.5274 161.406 76.578 161.162 76.6781C160.918 76.7782 160.696 76.9258 160.509 77.1123C160.323 77.2988 160.175 77.5205 160.075 77.7646C159.975 78.0086 159.924 78.2701 159.926 78.5339ZM165.978 68.4719H157.922C157.658 68.4701 157.396 68.5207 157.152 68.6208C156.908 68.7209 156.687 68.8685 156.5 69.055C156.314 69.2416 156.166 69.4633 156.066 69.7073C155.966 69.9514 155.915 70.2129 155.917 70.4767C155.915 70.7404 155.966 71.0019 156.066 71.2459C156.166 71.49 156.314 71.7117 156.5 71.8982C156.687 72.0847 156.908 72.2323 157.152 72.3324C157.396 72.4325 157.658 72.4832 157.922 72.4813C157.921 73.008 158.025 73.5295 158.226 74.0161C158.427 74.5027 158.723 74.9449 159.095 75.3173C159.468 75.6897 159.91 75.985 160.396 76.1864C160.883 76.3877 161.405 76.4911 161.931 76.4907C163.858 76.4907 165.517 75.103 165.863 73.2907C165.908 73.0239 165.933 72.7543 165.94 72.4838C166.204 72.4856 166.465 72.435 166.709 72.3349C166.953 72.2348 167.175 72.0873 167.362 71.9008C167.548 71.7143 167.696 71.4925 167.796 71.2485C167.896 71.0044 167.947 70.7429 167.945 70.4791C167.984 69.3589 167.097 68.4719 165.978 68.4719ZM157.922 71.479C157.657 71.4744 157.405 71.3673 157.218 71.1803C157.031 70.9934 156.924 70.7411 156.919 70.4767C156.924 70.2122 157.031 69.9599 157.218 69.7729C157.405 69.5859 157.657 69.4789 157.922 69.4743V71.479ZM166.904 70.8621C166.848 71.0172 166.75 71.1536 166.62 71.2558C166.491 71.358 166.335 71.422 166.171 71.4405C166.094 71.4405 166.057 71.479 165.978 71.479V69.4743C166.057 69.4743 166.133 69.4743 166.171 69.5128C166.483 69.6011 166.746 69.8091 166.904 70.0912C166.948 70.2154 166.974 70.3452 166.981 70.4767C166.974 70.6082 166.948 70.738 166.904 70.8621Z" fill="#E7E7EB"/>
<path d="M137.458 126.083L137.532 125.703L137.18 125.54L135.425 124.733L135.189 122.771L135.142 122.38L134.751 122.339L132.827 122.137L131.982 120.345L131.818 119.997L131.442 120.072L129.552 120.445L128.235 119.027L127.974 118.745L127.637 118.931L125.911 119.879L124.221 118.933L123.883 118.743L123.619 119.028L122.302 120.446L120.373 120.073L119.991 120L119.831 120.355L119.024 122.141L117.108 122.342L116.718 122.383L116.67 122.773L116.433 124.736L114.678 125.543L114.326 125.705L114.401 126.086L114.774 127.979L113.35 129.334L113.073 129.598L113.259 129.932L114.203 131.619L113.259 133.306L113.069 133.644L113.354 133.908L114.773 135.225L114.401 137.154L114.327 137.532L114.677 137.694L116.433 138.505L116.67 140.429L116.717 140.811L117.098 140.858L119.022 141.094L119.833 142.885L119.996 143.245L120.384 143.164L122.304 142.758L123.619 144.206L123.885 144.502L124.23 144.301L125.913 143.325L127.634 144.303L127.976 144.498L128.241 144.206L129.554 142.758L131.436 143.162L131.818 143.243L131.984 142.89L132.833 141.09L134.76 140.854L135.142 140.807L135.189 140.425L135.426 138.501L137.18 137.691L137.532 137.529L137.458 137.151L137.086 135.222L138.505 133.904L138.788 133.64L138.602 133.302L137.658 131.615L138.602 129.929L138.788 129.594L138.512 129.33L137.088 127.976L137.458 126.083Z" fill="#B6B8C2"/>
<path d="M123.885 144.998C123.816 144.998 123.747 144.984 123.684 144.955C123.62 144.927 123.563 144.886 123.517 144.834L122.127 143.302L120.098 143.73C119.987 143.752 119.873 143.737 119.772 143.686C119.672 143.635 119.592 143.552 119.545 143.45L118.684 141.552L116.657 141.303C116.547 141.29 116.444 141.241 116.365 141.163C116.287 141.085 116.236 140.983 116.222 140.873L115.974 138.839L114.119 137.982C114.018 137.936 113.936 137.857 113.886 137.758C113.835 137.66 113.819 137.547 113.84 137.439L114.232 135.401L112.731 134.008C112.649 133.932 112.595 133.831 112.578 133.72C112.561 133.61 112.581 133.497 112.636 133.4L113.634 131.618L112.64 129.84C112.587 129.744 112.566 129.632 112.583 129.523C112.599 129.414 112.652 129.313 112.732 129.237L114.234 127.81L113.841 125.803C113.819 125.694 113.835 125.58 113.886 125.481C113.936 125.382 114.019 125.303 114.119 125.256L115.975 124.4L116.227 122.322C116.24 122.211 116.291 122.107 116.371 122.028C116.451 121.949 116.555 121.9 116.667 121.888L118.691 121.675L119.543 119.793C119.589 119.691 119.668 119.608 119.767 119.556C119.866 119.505 119.979 119.489 120.089 119.511L122.128 119.905L123.523 118.404C123.599 118.322 123.7 118.269 123.81 118.251C123.92 118.234 124.032 118.254 124.129 118.309L125.916 119.309L127.738 118.309C127.835 118.255 127.947 118.236 128.056 118.254C128.165 118.271 128.266 118.325 128.341 118.406L129.731 119.903L131.725 119.511C131.834 119.488 131.948 119.503 132.047 119.553C132.147 119.604 132.226 119.686 132.272 119.787L133.16 121.673L135.196 121.888C135.308 121.9 135.412 121.949 135.492 122.028C135.572 122.107 135.623 122.211 135.636 122.322L135.884 124.399L137.74 125.255C137.84 125.302 137.923 125.381 137.973 125.48C138.024 125.579 138.04 125.692 138.019 125.801L137.946 126.181L137.627 127.807L139.13 129.235C139.21 129.311 139.262 129.411 139.279 129.52C139.295 129.63 139.275 129.741 139.221 129.837L138.224 131.616L139.223 133.398C139.277 133.496 139.297 133.609 139.279 133.719C139.261 133.83 139.207 133.931 139.124 134.006L137.624 135.4L138.017 137.438C138.038 137.547 138.021 137.66 137.971 137.759C137.92 137.857 137.837 137.936 137.736 137.982L135.883 138.839L135.634 140.87C135.621 140.98 135.572 141.083 135.494 141.162C135.415 141.241 135.313 141.291 135.203 141.305L133.165 141.553L132.267 143.455C132.219 143.557 132.138 143.639 132.038 143.689C131.938 143.739 131.823 143.753 131.714 143.729L129.728 143.304L128.341 144.833C128.265 144.917 128.163 144.972 128.052 144.989C127.94 145.007 127.826 144.986 127.728 144.93L125.914 143.898L124.132 144.932C124.057 144.975 123.972 144.998 123.885 144.998ZM125.913 142.826C126 142.825 126.086 142.848 126.161 142.891L127.879 143.867L129.189 142.422C129.248 142.358 129.322 142.31 129.405 142.283C129.488 142.257 129.576 142.252 129.661 142.27L131.539 142.673L132.386 140.878C132.422 140.802 132.476 140.737 132.544 140.687C132.612 140.638 132.692 140.607 132.775 140.597L134.699 140.361L134.935 138.437C134.946 138.353 134.977 138.273 135.027 138.205C135.077 138.136 135.143 138.082 135.22 138.046L136.973 137.239L136.601 135.315C136.585 135.233 136.59 135.147 136.617 135.067C136.643 134.987 136.689 134.915 136.751 134.858L138.168 133.542L137.223 131.858C137.182 131.784 137.16 131.7 137.16 131.615C137.16 131.53 137.182 131.447 137.223 131.372L138.168 129.689L136.746 128.336C136.685 128.278 136.64 128.206 136.615 128.126C136.59 128.047 136.585 127.962 136.601 127.88L136.974 125.989L135.22 125.183C135.143 125.147 135.077 125.092 135.027 125.024C134.978 124.955 134.946 124.875 134.936 124.791L134.7 122.831L132.781 122.629C132.696 122.62 132.615 122.59 132.545 122.54C132.476 122.491 132.42 122.425 132.384 122.348L131.539 120.558L129.653 120.931C129.57 120.946 129.485 120.941 129.404 120.915C129.324 120.889 129.252 120.843 129.194 120.781L127.879 119.365L126.153 120.309C126.079 120.349 125.996 120.371 125.912 120.371C125.828 120.371 125.745 120.349 125.672 120.309L123.984 119.364L122.668 120.78C122.611 120.842 122.539 120.888 122.459 120.914C122.379 120.941 122.293 120.946 122.21 120.93L120.286 120.558L119.479 122.341C119.444 122.42 119.388 122.488 119.318 122.539C119.247 122.589 119.165 122.621 119.079 122.63L117.167 122.831L116.929 124.791C116.919 124.875 116.888 124.955 116.838 125.024C116.788 125.092 116.722 125.147 116.645 125.183L114.893 125.989L115.265 127.881C115.281 127.963 115.277 128.047 115.251 128.127C115.226 128.207 115.181 128.278 115.121 128.336L113.699 129.689L114.643 131.374C114.684 131.448 114.706 131.531 114.706 131.616C114.706 131.701 114.684 131.784 114.643 131.858L113.699 133.542L115.116 134.859C115.178 134.916 115.224 134.988 115.251 135.068C115.277 135.148 115.282 135.233 115.266 135.316L114.894 137.24L116.647 138.047C116.724 138.082 116.79 138.137 116.84 138.205C116.89 138.273 116.921 138.353 116.932 138.437L117.168 140.361L119.088 140.598C119.173 140.608 119.253 140.64 119.321 140.691C119.39 140.741 119.444 140.808 119.479 140.886L120.289 142.674L122.206 142.27C122.291 142.252 122.379 142.256 122.461 142.283C122.544 142.31 122.618 142.358 122.676 142.422L123.989 143.868L125.669 142.893C125.744 142.851 125.828 142.829 125.913 142.829V142.826Z" fill="#B6B8C2"/>
<path d="M126.142 132.234C125.99 132.273 125.831 132.273 125.679 132.234L122.132 131.193C121.699 132.068 121.474 133.031 121.477 134.008C121.47 134.214 121.483 134.421 121.515 134.625C121.862 134.548 122.21 134.47 122.557 134.47C123.79 134.47 124.985 135.01 125.872 136.012C126.759 135.048 127.954 134.47 129.188 134.47C129.541 134.464 129.892 134.517 130.228 134.625C130.26 134.421 130.273 134.214 130.266 134.008C130.269 133.031 130.045 132.068 129.611 131.193L126.142 132.234ZM132.387 129.379L125.911 127.455L119.434 129.379L125.911 131.308L132.387 129.379Z" fill="#E7E7EB"/>
<path d="M26.9313 67.4832L27.0039 67.1047L26.6538 66.9427L24.898 66.1321L24.6615 64.2081L24.615 63.8258L24.2327 63.7786L22.3025 63.5421L21.4559 61.7801L21.2902 61.4363L20.9178 61.5101L19.0285 61.8825L17.7115 60.4643L17.4502 60.1825L17.1132 60.3687L15.3866 61.3171L13.6972 60.3706L13.3595 60.1813L13.0957 60.4655L11.7781 61.8844L9.84912 61.512L9.4699 61.4388L9.30853 61.7894L8.49797 63.5452L6.57395 63.781L6.19162 63.8283L6.14445 64.2106L5.90862 66.1346L4.1528 66.9451L3.80212 67.1072L3.87537 67.4857L4.24776 69.4097L2.79543 70.7274L2.5 70.9949L2.69985 71.3393L3.67613 73.0219L2.69798 74.7424L2.50249 75.0856L2.79543 75.3506L4.24776 76.6683L3.87537 78.5923L3.80212 78.9708L4.1528 79.1329L5.90862 79.9397L6.14445 81.8637L6.19162 82.246L6.57395 82.2926L8.49797 82.529L9.30853 84.2849L9.4699 84.6349L9.84912 84.5623L11.7781 84.1899L13.0957 85.6087L13.3595 85.8924L13.6972 85.7031L15.3866 84.7572L17.1132 85.7055L17.4502 85.8917L17.7115 85.61L19.0285 84.1918L20.9178 84.5641L21.2902 84.6374L21.4559 84.2942L22.3025 82.5321L24.2327 82.2951L24.615 82.2485L24.6615 81.8662L24.898 79.9422L26.6538 79.1353L27.0039 78.9733L26.9313 78.5948L26.5589 76.6658L27.9777 75.3481L28.2588 75.0868L28.0726 74.7498L27.1243 73.0231L28.0702 71.3344L28.2595 70.9961L27.9758 70.7323L26.557 69.4147L26.9313 67.4832Z" fill="#B6B8C2"/>
<path d="M13.358 86.3932C13.2898 86.3932 13.2222 86.3792 13.1597 86.352C13.0971 86.3248 13.0408 86.2849 12.9943 86.235L11.601 84.7336L9.56336 85.1271C9.45438 85.1482 9.34149 85.1321 9.24271 85.0815C9.14394 85.0309 9.06497 84.9486 9.01843 84.8478L8.16317 82.9927L6.1293 82.7444C6.01863 82.7313 5.91561 82.6813 5.83681 82.6025C5.758 82.5237 5.70799 82.4206 5.69484 82.31L5.44658 80.2767L3.59209 79.4208C3.49133 79.3744 3.40902 79.2956 3.35828 79.197C3.30755 79.0983 3.29132 78.9855 3.31217 78.8766L3.70381 76.8451L2.16584 75.4506C2.08222 75.3747 2.02694 75.2727 2.00911 75.1612C1.99129 75.0497 2.01197 74.9355 2.06777 74.8374L3.10054 73.022L2.06715 71.2413C2.01009 71.1431 1.98846 71.0282 2.00586 70.9159C2.02325 70.8037 2.07862 70.7008 2.16273 70.6244L3.70381 69.2273L3.31217 67.1965C3.29142 67.0877 3.30763 66.9751 3.35824 66.8766C3.40885 66.7781 3.49094 66.6993 3.59147 66.6529L5.44658 65.7964L5.69484 63.7625C5.70864 63.6524 5.75894 63.5501 5.83769 63.4719C5.91643 63.3937 6.01909 63.3441 6.1293 63.3311L8.16193 63.0828L9.01718 61.2277C9.0637 61.1271 9.14257 61.045 9.24121 60.9943C9.33986 60.9437 9.45261 60.9275 9.56149 60.9485L11.5997 61.3413L12.9931 59.8406C13.0688 59.759 13.1697 59.7052 13.2797 59.6879C13.3897 59.6705 13.5023 59.6907 13.5994 59.745L15.3869 60.7461L17.2098 59.7456C17.3067 59.6927 17.4186 59.6736 17.5276 59.6913C17.6367 59.7091 17.7367 59.7627 17.8118 59.8437L19.2014 61.3401L21.1937 60.9485C21.3018 60.9272 21.4139 60.9425 21.5123 60.992C21.6107 61.0414 21.6899 61.1222 21.7374 61.2216L22.6318 63.0835L24.6743 63.3318C24.785 63.3449 24.888 63.3949 24.9668 63.4737C25.0456 63.5525 25.0956 63.6556 25.1088 63.7662L25.357 65.7989L27.2134 66.6553C27.3142 66.7019 27.3964 66.7808 27.447 66.8796C27.4977 66.9784 27.5137 67.0913 27.4927 67.2003L27.0986 69.2372L28.5999 70.6319C28.6811 70.7076 28.7346 70.8083 28.7518 70.918C28.7691 71.0277 28.749 71.14 28.6949 71.237L27.6944 73.0245L28.6949 74.846C28.7482 74.9429 28.7676 75.0548 28.75 75.164C28.7325 75.2732 28.679 75.3734 28.5981 75.4487L27.0986 76.8408L27.4927 78.8778C27.5138 78.987 27.4976 79.1001 27.4468 79.1991C27.3959 79.298 27.3133 79.377 27.2122 79.4233L25.357 80.2792L25.1088 82.3112C25.0958 82.4214 25.0462 82.5241 24.968 82.6028C24.8898 82.6816 24.7875 82.7319 24.6774 82.7457L22.6342 82.9939L21.7399 84.8559C21.6923 84.9552 21.6131 85.0358 21.5146 85.0851C21.4162 85.1344 21.3042 85.1496 21.1962 85.1283L19.2039 84.7367L17.8143 86.2331C17.7391 86.3141 17.6391 86.3678 17.5301 86.3855C17.4211 86.4033 17.3092 86.3841 17.2122 86.3312L15.3894 85.3307L13.6019 86.3318C13.5272 86.3729 13.4432 86.394 13.358 86.3932ZM11.7772 83.6978C11.8455 83.6977 11.913 83.7117 11.9756 83.739C12.0381 83.7662 12.0944 83.806 12.1409 83.856L13.4561 85.2736L15.1436 84.3289C15.2172 84.2882 15.3 84.2668 15.3841 84.2668C15.4683 84.2668 15.551 84.2882 15.6246 84.3289L17.3488 85.276L18.6639 83.8598C18.721 83.7973 18.7934 83.7506 18.8739 83.7244C18.9544 83.6982 19.0403 83.6933 19.1232 83.7102L21.0094 84.0826L21.856 82.323C21.8922 82.2481 21.9466 82.1835 22.0142 82.1352C22.0819 82.0868 22.1607 82.0562 22.2432 82.0462L24.1673 81.8091L24.4037 79.8851C24.4141 79.8011 24.4457 79.7211 24.4957 79.6528C24.5457 79.5845 24.6123 79.5301 24.6892 79.4947L26.4413 78.6879L26.0689 76.7639C26.053 76.6811 26.0584 76.5955 26.0847 76.5154C26.111 76.4352 26.1572 76.3631 26.2191 76.3058L27.6361 74.9907L26.6896 73.2659C26.6488 73.1923 26.6274 73.1095 26.6274 73.0254C26.6274 72.9412 26.6488 72.8585 26.6896 72.7849L27.6342 71.0974L26.2173 69.7828C26.1554 69.7255 26.1091 69.6534 26.0828 69.5732C26.0566 69.4931 26.0511 69.4076 26.0671 69.3247L26.4394 67.4007L24.6873 66.5939C24.6104 66.5585 24.5438 66.5041 24.4938 66.4358C24.4439 66.3675 24.4122 66.2875 24.4019 66.2035L24.1654 64.2795L22.2414 64.0424C22.1587 64.0324 22.08 64.0016 22.0123 63.9531C21.9446 63.9047 21.8902 63.84 21.8541 63.765L21.0075 62.0054L19.1214 62.3778C19.0385 62.3945 18.9527 62.3896 18.8722 62.3635C18.7918 62.3374 18.7194 62.291 18.6621 62.2288L17.3469 60.8126L15.6228 61.7591C15.5491 61.7998 15.4664 61.8212 15.3823 61.8212C15.2981 61.8212 15.2154 61.7998 15.1418 61.7591L13.4542 60.815L12.1391 62.2313C12.0817 62.293 12.0097 62.3391 11.9297 62.3653C11.8497 62.3914 11.7643 62.3968 11.6816 62.3809L9.75761 62.0085L8.95077 63.7619C8.91521 63.8386 8.86063 63.905 8.7922 63.9548C8.72377 64.0045 8.64377 64.036 8.55977 64.0461L6.63576 64.2832L6.39929 66.2072C6.38892 66.2913 6.35725 66.3712 6.30728 66.4395C6.25731 66.5078 6.1907 66.5623 6.11378 66.5976L4.36169 67.4045L4.73408 69.3285C4.75022 69.4122 4.74455 69.4986 4.71759 69.5795C4.69063 69.6604 4.6433 69.7329 4.58016 69.7902L3.13033 71.106L4.10475 72.7861C4.14832 72.8616 4.17127 72.9472 4.17127 73.0344C4.17127 73.1216 4.14832 73.2072 4.10475 73.2827L3.12846 74.9993L4.57829 76.3151C4.64143 76.3724 4.68877 76.445 4.71573 76.5259C4.74269 76.6067 4.74836 76.6932 4.73221 76.7769L4.35982 78.7009L6.11316 79.5078C6.18985 79.5433 6.2562 79.5978 6.30595 79.6661C6.35569 79.7344 6.38718 79.8143 6.39742 79.8982L6.63389 81.8222L8.55791 82.0586C8.6419 82.0688 8.7219 82.1002 8.79033 82.1499C8.85877 82.1997 8.91336 82.2661 8.94892 82.3429L9.75577 84.0962L11.6798 83.7238C11.7113 83.7117 11.7439 83.703 11.7772 83.6978Z" fill="#B6B8C2"/>
<path d="M20.7041 75.2929H19.8178V70.8981H20.7041V70.0112L15.4229 67.3511L10.1412 70.0112V70.8981H11.0275V75.2929H10.1412V76.1798H20.7425V75.2929H20.7041ZM13.6491 75.2929H11.8759V70.8981H13.6491V75.2929ZM16.2708 75.2929H14.4976V70.8981H16.2708V75.2929ZM18.9309 75.2929H17.1577V70.8981H18.9309V75.2929ZM9.21582 77.0661V77.953H21.5525V77.0661H9.21582Z" fill="#E7E7EB"/>
<path d="M51.9296 144.371C58.9727 144.371 64.6815 138.661 64.6815 131.619C64.6815 124.577 58.9715 118.867 51.9296 118.867C44.8877 118.867 39.1777 124.577 39.1777 131.619C39.1777 138.661 44.8871 144.371 51.9296 144.371Z" fill="#B6B8C2"/>
<path d="M51.9297 144.868C44.6246 144.868 38.6807 138.924 38.6807 131.619C38.6807 124.314 44.6246 118.371 51.9297 118.371C59.2347 118.371 65.1787 124.314 65.1787 131.619C65.1787 138.924 59.2347 144.868 51.9297 144.868ZM51.9297 119.364C45.1714 119.364 39.6737 124.862 39.6737 131.619C39.6737 138.377 45.1714 143.875 51.9297 143.875C58.6879 143.875 64.1856 138.377 64.1856 131.619C64.1856 124.862 58.6879 119.359 51.9297 119.359V119.364Z" fill="#B6B8C2"/>
<path d="M49.0383 133.275L49.7321 136.09C49.7706 136.243 49.6937 136.32 49.5391 136.32H48.6907C48.6216 136.318 48.5546 136.295 48.4991 136.254C48.4435 136.213 48.4021 136.156 48.3804 136.09L46.1827 127.145C46.1442 126.991 46.2211 126.914 46.3757 126.914H47.2235C47.2927 126.916 47.3597 126.939 47.4152 126.98C47.4707 127.022 47.5122 127.079 47.5338 127.145L47.6493 127.685C50.8878 128.842 52.7771 125.757 56.208 127.415C56.6704 129.304 57.1334 131.154 57.5958 133.044C54.2039 131.348 52.3147 134.432 49.0383 133.275Z" fill="#E7E7EB"/>
<path d="M65.4241 51.3917C65.4241 41.7536 73.2505 33.9663 82.8495 33.9663H101.586C111.224 33.9663 119.01 41.7921 119.01 51.3917V61.8391H110.684L111.801 51.0832L101.203 43.4114L91.4883 47.7677L82.7756 45.4161L73.5217 54.6681L75.4495 61.8391H72.4045C73.321 61.8389 74.2285 62.0192 75.0752 62.3698C75.9219 62.7204 76.6912 63.2343 77.3393 63.8824C77.9873 64.5304 78.5013 65.2997 78.8518 66.1464C79.2024 66.9931 79.3828 67.9006 79.3825 68.8171C79.3801 71.106 79.8293 73.373 80.7041 75.4881C81.579 77.6033 82.8625 79.5252 84.481 81.1437C86.0996 82.7622 88.0215 84.0456 90.1367 84.9204C92.2519 85.7952 94.5189 86.2443 96.8079 86.2418H115.54C116.705 86.245 117.868 86.1287 119.009 85.8949V104.977C119.01 106.122 118.786 107.255 118.349 108.313C117.911 109.371 117.27 110.332 116.46 111.141C115.651 111.95 114.69 112.592 113.633 113.03C112.575 113.467 111.442 113.692 110.297 113.691L74.1355 113.652C72.9911 113.653 71.8576 113.429 70.8 112.991C69.7424 112.554 68.7815 111.912 67.9722 111.103C67.1629 110.294 66.5212 109.333 66.0837 108.275C65.6463 107.217 65.4217 106.084 65.4229 104.939L65.4241 51.3917Z" fill="#E7E7EB"/>
<path d="M110.298 114.187L74.1347 114.149C69.0584 114.149 64.9268 110.018 64.9268 104.939V51.3917C64.9268 41.5097 72.9673 33.4698 82.8493 33.4698H101.585C111.467 33.4698 119.506 41.5097 119.506 51.3917V61.8391C119.506 61.9708 119.454 62.0971 119.361 62.1902C119.268 62.2833 119.141 62.3356 119.01 62.3356H110.684C110.614 62.3356 110.545 62.321 110.482 62.2928C110.418 62.2646 110.361 62.2233 110.315 62.1717C110.268 62.12 110.233 62.059 110.212 61.9928C110.191 61.9266 110.183 61.8568 110.191 61.7876L111.279 51.3172L101.14 43.9817L91.6855 48.2208C91.5811 48.2665 91.4644 48.276 91.354 48.2475L82.9188 45.9703L74.0714 54.817L75.9247 61.71C75.9451 61.7841 75.948 61.8619 75.9333 61.9372C75.9185 62.0126 75.8865 62.0836 75.8396 62.1445C75.8328 62.1538 75.8241 62.1637 75.8161 62.173C77.0376 62.8016 78.0625 63.7544 78.7783 64.9269C79.4942 66.0994 79.8735 67.4464 79.8745 68.8202C79.8745 78.1547 87.4688 85.749 96.8027 85.749H115.539C116.67 85.7513 117.799 85.6384 118.908 85.412C118.98 85.3971 119.055 85.3984 119.126 85.4159C119.198 85.4334 119.265 85.4666 119.322 85.5132C119.379 85.5595 119.425 85.6181 119.457 85.6847C119.489 85.7513 119.505 85.8242 119.505 85.898V104.98C119.506 110.056 115.375 114.187 110.298 114.187ZM82.8493 34.4628C73.5141 34.4628 65.9198 42.0571 65.9198 51.3917V104.939C65.9198 109.47 69.6058 113.156 74.136 113.156L110.298 113.194C114.829 113.194 118.513 109.508 118.513 104.977V86.4932C117.531 86.6589 116.536 86.7419 115.54 86.7414H96.804C86.922 86.7414 78.8827 78.7015 78.8827 68.8195C78.8815 67.1011 78.1987 65.4533 76.9841 64.2377C75.7694 63.0221 74.1222 62.3381 72.4037 62.3356C72.272 62.3356 72.1457 62.2833 72.0526 62.1902C71.9595 62.0971 71.9072 61.9708 71.9072 61.8391C71.9072 61.7074 71.9595 61.5811 72.0526 61.488C72.1457 61.3949 72.272 61.3426 72.4037 61.3426H74.8025L73.043 54.7978C73.0202 54.7136 73.02 54.6248 73.0425 54.5405C73.0649 54.4561 73.1092 54.3792 73.1708 54.3174L82.4235 45.0648C82.4854 45.0034 82.5624 44.9593 82.6466 44.9367C82.7309 44.9142 82.8196 44.914 82.9039 44.9363L91.4453 47.242L101 42.9595C101.079 42.9239 101.166 42.9098 101.253 42.9186C101.34 42.9275 101.422 42.9589 101.493 43.0098L112.096 50.6817C112.166 50.7328 112.222 50.8017 112.258 50.8813C112.293 50.961 112.307 51.0485 112.298 51.1353L111.237 61.3432H118.516V51.3923C118.516 42.0578 110.922 34.4635 101.588 34.4635L82.8493 34.4628Z" fill="#B6B8C2"/>
<path d="M115.503 63.8469V51.4289C115.503 43.7571 109.257 37.4736 101.586 37.4736H82.8495C75.1776 37.4736 68.8936 43.7186 68.8936 51.3904V63.8109L115.503 63.8469Z" fill="#CED0D6"/>
<path d="M115.503 64.3434L68.892 64.3049C68.7603 64.3049 68.6341 64.2526 68.5409 64.1595C68.4478 64.0664 68.3955 63.9401 68.3955 63.8084V51.3904C68.3955 43.4424 74.8782 36.9764 82.848 36.9764H101.584C109.531 36.9764 115.997 43.4598 115.997 51.4289V63.8469C115.997 63.9121 115.985 63.9767 115.96 64.037C115.935 64.0973 115.898 64.1521 115.852 64.1982C115.759 64.2907 115.634 64.3428 115.503 64.3434ZM69.3885 63.3125L115.006 63.3498V51.4289C115.006 44.0072 108.986 37.9695 101.585 37.9695H82.8498C75.4281 37.9695 69.3904 43.9898 69.3904 51.3904L69.3885 63.3125Z" fill="#B6B8C2"/>
<path d="M54.205 67.3132C55.6697 56.4034 54.8604 49.004 57.9444 44.9922C58.3683 43.9513 58.8692 42.9105 59.4861 41.9851C50.5035 44.1822 52.7012 52.5479 50.735 67.3132C48.4218 84.7386 36.0082 108.871 51.9688 108.911H55.4382C39.4782 108.87 51.8534 84.777 54.205 67.3132Z" fill="#B6B8C2"/>
<path d="M55.4385 109.408H51.9684C48.8596 109.399 46.5787 108.477 45.1872 106.667C41.6687 102.089 44.1942 92.5321 46.863 82.4149C48.2147 77.2945 49.6118 71.9997 50.2424 67.248C50.7153 63.6998 50.9462 60.5146 51.151 57.7043C51.8064 48.6944 52.2012 43.2556 59.3678 41.5022C59.4649 41.4785 59.567 41.4846 59.6605 41.5199C59.7541 41.5551 59.8349 41.6178 59.8923 41.6996C59.9493 41.7813 59.9805 41.8782 59.9817 41.9778C59.9829 42.0774 59.9541 42.1752 59.8991 42.2582C59.3691 43.0539 58.88 44.0084 58.4039 45.1753C58.387 45.2164 58.3649 45.2552 58.3382 45.2907C56.3521 47.8707 56.0461 52.0185 55.6228 57.7608C55.4143 60.5872 55.1772 63.791 54.6962 67.3747C54.0495 72.1803 52.648 77.4912 51.2919 82.6203C48.679 92.5122 46.21 101.855 49.4355 106.054C50.6477 107.632 52.6114 108.403 55.4391 108.412C55.5708 108.412 55.6971 108.464 55.7902 108.557C55.8833 108.651 55.9356 108.777 55.9356 108.909C55.9359 108.974 55.9233 109.039 55.8985 109.099C55.8736 109.16 55.8371 109.215 55.7909 109.261C55.7446 109.308 55.6897 109.345 55.6292 109.37C55.5688 109.395 55.5039 109.408 55.4385 109.408ZM58.4077 42.8211C53.0918 44.706 52.7424 49.5061 52.1391 57.7788C51.9349 60.6027 51.7046 63.8034 51.2255 67.3808C50.5856 72.1946 49.1774 77.5198 47.8206 82.67C45.2139 92.5451 42.7518 101.872 45.9723 106.065C46.9809 107.376 48.5083 108.129 50.6216 108.348C49.8524 107.932 49.1793 107.359 48.6461 106.666C45.1239 102.08 47.653 92.5085 50.3299 82.3739C51.678 77.2709 53.0719 71.9936 53.7112 67.2493C54.1872 63.6948 54.4231 60.5066 54.6304 57.6913C55.0648 51.815 55.3752 47.5585 57.5077 44.7426C57.7742 44.087 58.0746 43.4456 58.4077 42.8211Z" fill="#B6B8C2"/>
<path d="M56.7114 71.7471C53.3189 86.8593 45.4931 104.709 56.8268 106.559C56.9814 107.366 57.2122 108.178 57.5983 108.911H55.439C39.479 108.873 51.8926 83.8523 54.2058 66.4269C55.6705 55.7865 54.8221 48.6142 58.0222 44.7606C57.1519 46.8628 56.7064 49.1165 56.7114 51.3917V71.7471Z" fill="#CED0D6"/>
<path d="M57.5985 109.408H55.4399C52.3814 109.4 50.1234 108.477 48.7263 106.669C45.0837 101.952 47.6601 92.0077 50.3884 81.4803C51.7179 76.3518 53.092 71.0496 53.7139 66.3618C54.185 62.9371 54.4165 59.8674 54.6213 57.1589C55.0557 51.3632 55.3729 47.1757 57.6401 44.4436C57.716 44.352 57.8224 44.2907 57.9397 44.2709C58.057 44.251 58.1776 44.274 58.2794 44.3356C58.3812 44.3971 58.4575 44.493 58.4945 44.606C58.5315 44.719 58.5268 44.8415 58.4811 44.9513C57.6348 46.9927 57.2019 49.1819 57.2075 51.3918V71.7491C57.2076 71.7856 57.2036 71.8221 57.1957 71.8577C56.513 74.884 55.6534 78.0449 54.818 81.1016C52.2734 90.425 49.8665 99.2308 52.6197 103.515C53.5159 104.91 54.9161 105.746 56.9078 106.071C57.0082 106.087 57.1013 106.134 57.1742 106.205C57.2472 106.276 57.2965 106.368 57.3155 106.468C57.4843 107.354 57.7208 108.078 58.038 108.681C58.0777 108.757 58.0972 108.842 58.0946 108.927C58.092 109.013 58.0673 109.096 58.0231 109.169C57.9787 109.242 57.9164 109.302 57.842 109.344C57.7677 109.386 57.6838 109.408 57.5985 109.408ZM56.2182 51.0045C55.9451 52.8081 55.7881 54.8854 55.6112 57.237C55.4058 59.9592 55.173 63.0457 54.6976 66.4978C54.0677 71.2432 52.6867 76.5759 51.3505 81.7322C48.6817 92.0176 46.1668 101.733 49.5115 106.065C50.7286 107.641 52.6681 108.411 55.4405 108.418H56.8295C56.6521 107.954 56.5114 107.476 56.4087 106.99C54.3283 106.579 52.7736 105.592 51.7837 104.052C48.7921 99.3972 51.253 90.3829 53.8597 80.8397C54.6871 77.8116 55.5423 74.681 56.2145 71.6932V51.393C56.2145 51.2618 56.2157 51.1313 56.2182 51.0014V51.0045Z" fill="#B6B8C2"/>
<path d="M118.972 85.934C117.83 86.1674 116.668 86.2836 115.503 86.2809H118.972V85.934Z" fill="#E7E7EB"/>
<path d="M118.972 86.775H115.503C115.372 86.775 115.245 86.7227 115.152 86.6296C115.059 86.5364 115.007 86.4101 115.007 86.2784C115.007 86.1468 115.059 86.0204 115.152 85.9273C115.245 85.8342 115.372 85.7819 115.503 85.7819C116.634 85.7845 117.763 85.6718 118.871 85.4455C118.943 85.4311 119.018 85.4327 119.09 85.4502C119.161 85.4677 119.228 85.5006 119.286 85.5467C119.343 85.5933 119.389 85.6521 119.421 85.7188C119.452 85.7854 119.469 85.8583 119.469 85.9321V86.2784C119.469 86.3436 119.456 86.4082 119.431 86.4685C119.406 86.5287 119.369 86.5834 119.323 86.6296C119.277 86.6757 119.222 86.7122 119.162 86.7371C119.102 86.7621 119.037 86.775 118.972 86.775Z" fill="#B6B8C2"/>
<path d="M118.972 85.9339C117.831 86.1679 116.668 86.2843 115.503 86.2815H96.7664C87.1284 86.2815 79.3411 78.4551 79.3411 68.8561C79.3414 67.9397 79.1611 67.0322 78.8106 66.1855C78.4601 65.3388 77.9462 64.5695 77.2982 63.9215C76.6502 63.2734 75.8809 62.7594 75.0343 62.4088C74.1876 62.0582 73.2801 61.8779 72.3637 61.8782C71.4473 61.8779 70.5398 62.0582 69.6931 62.4088C68.8463 62.7594 68.077 63.2734 67.429 63.9214C66.781 64.5694 66.267 65.3387 65.9164 66.1854C65.5658 67.0322 65.3855 67.9397 65.3857 68.8561V104.978C65.3845 106.122 65.609 107.256 66.0465 108.314C66.4839 109.371 67.1256 110.332 67.9349 111.141C68.7442 111.951 69.7052 112.592 70.7628 113.03C71.8204 113.467 72.9539 113.692 74.0984 113.691L110.259 113.729C111.404 113.73 112.537 113.506 113.595 113.068C114.652 112.631 115.613 111.989 116.423 111.18C117.232 110.37 117.874 109.41 118.311 108.352C118.749 107.294 118.973 106.161 118.972 105.016V85.9339Z" fill="#E7E7EB"/>
<path d="M110.26 114.226L74.0976 114.188C69.0207 114.188 64.8896 110.057 64.8896 104.979V68.8568C64.8916 66.8751 65.6797 64.9752 67.0808 63.5739C68.482 62.1726 70.3819 61.3845 72.3635 61.3823C74.3453 61.3845 76.2453 62.1726 77.6466 63.5739C79.048 64.9751 79.8363 66.875 79.8386 68.8568C79.8386 78.1914 87.4329 85.7856 96.7668 85.7856H115.504C116.635 85.7879 117.763 85.675 118.871 85.4486C118.944 85.434 119.018 85.4356 119.09 85.4531C119.161 85.4705 119.228 85.5035 119.286 85.5498C119.343 85.5963 119.389 85.655 119.421 85.7216C119.452 85.7881 119.469 85.8609 119.469 85.9346V105.018C119.469 110.095 115.338 114.226 110.26 114.226ZM72.3635 62.3748C70.6452 62.3767 68.9978 63.0602 67.7828 64.2753C66.5679 65.4904 65.8845 67.1379 65.8827 68.8562V104.978C65.8827 109.509 69.5687 113.194 74.0982 113.194L110.261 113.233C114.792 113.233 118.476 109.547 118.476 105.016V86.5323C117.494 86.6966 116.499 86.7786 115.504 86.7774H96.7668C86.8849 86.7774 78.8456 78.7376 78.8456 68.8556C78.8434 67.1372 78.1598 65.4898 76.9446 64.2748C75.7294 63.0599 74.0819 62.3766 72.3635 62.3748Z" fill="#B6B8C2"/>
<path d="M65.3855 104.977L65.424 51.3917C65.424 41.7537 73.2498 33.9663 82.8494 33.9663H74.1367C71.8477 33.9639 69.5807 34.4131 67.4655 35.2879C65.3503 36.1628 63.4284 37.4463 61.8098 39.0649C60.1913 40.6834 58.9078 42.6053 58.0329 44.7205C57.1581 46.8357 56.709 49.1027 56.7113 51.3917L56.6729 104.977C56.6716 106.122 56.8962 107.255 57.3336 108.313C57.771 109.371 58.4127 110.332 59.222 111.141C60.0313 111.95 60.9922 112.592 62.0498 113.03C63.1075 113.467 64.241 113.692 65.3855 113.691H74.0982C72.9537 113.692 71.8202 113.467 70.7625 113.03C69.7049 112.592 68.7439 111.95 67.9347 111.141C67.1254 110.332 66.4837 109.371 66.0462 108.313C65.6088 107.255 65.3843 106.122 65.3855 104.977Z" fill="#B6B8C2"/>
<path d="M74.097 114.187H65.385C60.3074 114.187 56.1758 110.056 56.1758 104.977L56.2149 51.3911C56.2149 41.5097 64.2542 33.4698 74.1361 33.4698H82.8482C82.9799 33.4698 83.1062 33.5221 83.1993 33.6153C83.2924 33.7084 83.3447 33.8346 83.3447 33.9663C83.3447 34.098 83.2924 34.2243 83.1993 34.3174C83.1062 34.4105 82.9799 34.4628 82.8482 34.4628C73.5143 34.4628 65.92 42.0571 65.92 51.3917L65.8815 104.977C65.8815 109.508 69.5675 113.194 74.097 113.194C74.2287 113.194 74.355 113.246 74.4481 113.34C74.5413 113.433 74.5936 113.559 74.5936 113.691C74.5936 113.822 74.5413 113.949 74.4481 114.042C74.355 114.135 74.2287 114.187 74.097 114.187ZM74.1361 34.4628C64.8022 34.4628 57.2079 42.0571 57.2079 51.3917L57.1688 104.978C57.1688 109.509 60.8549 113.194 65.385 113.194H69.9399C68.4215 112.424 67.1458 111.249 66.2542 109.799C65.3626 108.349 64.8899 106.68 64.8885 104.977L64.9269 51.3911C64.9269 43.5709 69.9623 36.9038 76.962 34.4628H74.1361Z" fill="#B6B8C2"/>
<path d="M77.5676 114.187C72.4901 114.187 68.3584 110.056 68.3584 104.977V100.622C68.3584 100.49 68.4107 100.364 68.5038 100.271C68.5969 100.177 68.7232 100.125 68.8549 100.125C68.9866 100.125 69.1129 100.177 69.206 100.271C69.2991 100.364 69.3514 100.49 69.3514 100.622V104.977C69.3514 109.508 73.0375 113.194 77.5676 113.194C77.6993 113.194 77.8256 113.246 77.9187 113.34C78.0118 113.433 78.0641 113.559 78.0641 113.691C78.0641 113.822 78.0118 113.949 77.9187 114.042C77.8256 114.135 77.6993 114.187 77.5676 114.187Z" fill="#B6B8C2"/>
<path d="M77.5683 114.187H74.0982C69.0207 114.187 64.8896 110.056 64.8896 104.977V100.622C64.8896 100.49 64.942 100.364 65.0351 100.271C65.1282 100.177 65.2545 100.125 65.3862 100.125C65.5179 100.125 65.6441 100.177 65.7373 100.271C65.8304 100.364 65.8827 100.49 65.8827 100.622V104.977C65.8827 109.508 69.5687 113.194 74.0982 113.194H77.5683C77.7 113.194 77.8263 113.246 77.9194 113.34C78.0125 113.433 78.0648 113.559 78.0648 113.691C78.0648 113.822 78.0125 113.949 77.9194 114.042C77.8263 114.135 77.7 114.187 77.5683 114.187Z" fill="#B6B8C2"/>
<path d="M79.3421 69.313C79.2104 69.313 79.0841 69.2606 78.991 69.1675C78.8979 69.0744 78.8456 68.9481 78.8456 68.8164C78.8436 67.098 78.16 65.4504 76.9448 64.2353C75.7296 63.0202 74.082 62.3368 72.3635 62.335C70.6452 62.3369 68.9978 63.0205 67.7828 64.2356C66.5679 65.4507 65.8845 67.0981 65.8827 68.8164C65.8827 68.9481 65.8304 69.0744 65.7373 69.1675C65.6441 69.2606 65.5179 69.313 65.3862 69.313C65.2545 69.313 65.1282 69.2606 65.0351 69.1675C64.942 69.0744 64.8896 68.9481 64.8896 68.8164C64.8916 66.8348 65.6797 64.9349 67.0808 63.5336C68.482 62.1323 70.3819 61.3441 72.3635 61.3419C74.3453 61.3441 76.2453 62.1322 77.6466 63.5335C79.048 64.9347 79.8363 66.8347 79.8386 68.8164C79.8386 68.9481 79.7863 69.0744 79.6932 69.1675C79.6001 69.2606 79.4738 69.313 79.3421 69.313Z" fill="#B6B8C2"/>
<path d="M75.8319 69.313C75.7002 69.313 75.5739 69.2606 75.4808 69.1675C75.3877 69.0744 75.3354 68.9481 75.3354 68.8164C75.3339 68.0285 75.0203 67.2732 74.4632 66.7159C73.9062 66.1586 73.151 65.8447 72.3631 65.8429C71.5749 65.8444 70.8194 66.1581 70.2621 66.7154C69.7048 67.2728 69.391 68.0283 69.3895 68.8164C69.3895 68.9481 69.3372 69.0744 69.2441 69.1675C69.151 69.2606 69.0247 69.313 68.893 69.313C68.7613 69.313 68.635 69.2606 68.5419 69.1675C68.4488 69.0744 68.3965 68.9481 68.3965 68.8164C68.398 67.7649 68.8163 66.7568 69.5599 66.0133C70.3035 65.2697 71.3115 64.8513 72.3631 64.8499C73.4144 64.8517 74.4221 65.2702 75.1654 66.0137C75.9087 66.7572 76.3269 67.7651 76.3284 68.8164C76.3284 68.9481 76.2761 69.0744 76.183 69.1675C76.0898 69.2606 75.9636 69.313 75.8319 69.313Z" fill="#B6B8C2"/>
<path d="M68.893 101.157C68.7613 101.157 68.635 101.104 68.5419 101.011C68.4488 100.918 68.3965 100.792 68.3965 100.66V73.0586C68.3965 72.9269 68.4488 72.8006 68.5419 72.7075C68.635 72.6144 68.7613 72.5621 68.893 72.5621C69.0247 72.5621 69.151 72.6144 69.2441 72.7075C69.3372 72.8006 69.3895 72.9269 69.3895 73.0586V100.661C69.3894 100.792 69.337 100.918 69.2439 101.011C69.1508 101.104 69.0246 101.157 68.893 101.157Z" fill="#B6B8C2"/>
<path d="M83.2349 34.0048V29.4175C83.2333 29.1994 83.275 28.9831 83.3577 28.7812C83.4405 28.5793 83.5625 28.396 83.7168 28.2417C83.871 28.0874 84.0545 27.9654 84.2563 27.8826C84.4582 27.7999 84.6745 27.7581 84.8927 27.7598H94.1838C94.4019 27.7582 94.6182 27.8001 94.8201 27.8828C95.0219 27.9656 95.2053 28.0876 95.3595 28.2419C95.5138 28.3961 95.6358 28.5795 95.7186 28.7813C95.8013 28.9831 95.8431 29.1994 95.8416 29.4175V34.0048H100.086V29.4175C100.086 26.179 97.4633 23.5574 94.2254 23.5214H84.9343C81.6963 23.5214 79.0747 26.143 79.0381 29.3809V33.9688L83.2349 34.0048Z" fill="#E7E7EB"/>
<path d="M100.085 34.5013H95.8436C95.7119 34.5013 95.5856 34.449 95.4925 34.3559C95.3994 34.2628 95.347 34.1365 95.347 34.0048V29.4176C95.3488 29.2646 95.32 29.1129 95.2623 28.9712C95.2046 28.8295 95.1192 28.7008 95.0111 28.5926C94.903 28.4844 94.7743 28.3989 94.6327 28.341C94.4911 28.2832 94.3394 28.2542 94.1864 28.2557H84.8916C84.7386 28.2542 84.5869 28.2832 84.4453 28.341C84.3037 28.3989 84.175 28.4844 84.0669 28.5926C83.9588 28.7008 83.8734 28.8295 83.8157 28.9712C83.758 29.1129 83.7292 29.2646 83.731 29.4176V34.0048C83.7309 34.0704 83.7179 34.1353 83.6927 34.1958C83.6674 34.2563 83.6305 34.3112 83.5839 34.3574C83.5386 34.4055 83.4836 34.4432 83.4224 34.4681C83.3612 34.4929 83.2954 34.5042 83.2295 34.5013L79.0277 34.4628C78.8969 34.4615 78.7718 34.4087 78.6798 34.3157C78.5878 34.2227 78.5361 34.0972 78.5361 33.9663V29.3785C78.5777 25.8706 81.4464 23.0224 84.9288 23.0224H94.22C97.7279 23.0646 100.577 25.9326 100.577 29.4151V34.0023C100.577 34.1336 100.526 34.2598 100.434 34.3533C100.342 34.4468 100.216 34.5 100.085 34.5013ZM96.3401 33.5083H99.5886V29.4176C99.5886 26.4738 97.1798 24.0508 94.2193 24.0179H84.9338C81.9907 24.0179 79.5683 26.426 79.5341 29.3865V33.4767L82.7429 33.5065V29.4201C82.7398 29.1363 82.7934 28.8549 82.9006 28.5921C83.0077 28.3294 83.1662 28.0907 83.3668 27.89C83.5673 27.6893 83.806 27.5306 84.0687 27.4233C84.3314 27.316 84.6128 27.2623 84.8966 27.2652H94.1883C94.472 27.2623 94.7535 27.316 95.0162 27.4233C95.2789 27.5306 95.5175 27.6893 95.7181 27.89C95.9187 28.0907 96.0772 28.3294 96.1843 28.5921C96.2914 28.8549 96.345 29.1363 96.342 29.4201L96.3401 33.5083Z" fill="#B6B8C2"/>
<path d="M94.1845 27.7604H90.833C91.0511 27.7588 91.2674 27.8005 91.4692 27.8832C91.671 27.9658 91.8544 28.0878 92.0087 28.242C92.1629 28.3962 92.285 28.5796 92.3678 28.7814C92.4505 28.9832 92.4923 29.1994 92.4908 29.4175V34.0053H95.8423V29.4175C95.8438 29.1994 95.802 28.9832 95.7193 28.7814C95.6365 28.5796 95.5144 28.3962 95.3602 28.242C95.2059 28.0878 95.0225 27.9658 94.8207 27.8832C94.6189 27.8005 94.4026 27.7588 94.1845 27.7604Z" fill="#B6B8C2"/>
<path d="M95.8427 34.5019H92.4912C92.3595 34.5019 92.2332 34.4497 92.1401 34.3565C92.047 34.2634 91.9947 34.1371 91.9947 34.0054V29.4176C91.9963 29.2646 91.9674 29.1129 91.9097 28.9712C91.8519 28.8296 91.7664 28.701 91.6582 28.5928C91.5501 28.4846 91.4214 28.3992 91.2798 28.3414C91.1381 28.2836 90.9864 28.2547 90.8334 28.2563C90.7017 28.2563 90.5755 28.2041 90.4823 28.1109C90.3892 28.0178 90.3369 27.8915 90.3369 27.7598C90.3369 27.6281 90.3892 27.5019 90.4823 27.4088C90.5755 27.3157 90.7017 27.2633 90.8334 27.2633H94.1849C94.4687 27.2602 94.7503 27.3139 95.0131 27.421C95.2759 27.5282 95.5146 27.6868 95.7153 27.8874C95.916 28.0881 96.0746 28.3268 96.1819 28.5895C96.2891 28.8523 96.3428 29.1338 96.3398 29.4176V34.0054C96.3398 34.0707 96.327 34.1353 96.302 34.1956C96.277 34.2559 96.2404 34.3107 96.1942 34.3568C96.148 34.4029 96.0932 34.4394 96.0329 34.4644C95.9726 34.4893 95.908 34.502 95.8427 34.5019ZM92.9877 33.5089H95.3462V29.4176C95.3478 29.2646 95.3188 29.1128 95.2609 28.9712C95.2031 28.8295 95.1176 28.7009 95.0094 28.5927C94.9011 28.4846 94.7724 28.3991 94.6308 28.3414C94.4891 28.2836 94.3373 28.2547 94.1843 28.2563H92.655C92.8726 28.6045 92.9871 29.0071 92.9852 29.4176L92.9877 33.5089Z" fill="#B6B8C2"/>
<path d="M84.8922 23.5189H81.5407C78.3028 23.5189 75.6811 26.1406 75.6445 29.3785V33.9663H78.996V29.3785C78.9942 26.179 81.6543 23.5189 84.8922 23.5189Z" fill="#B6B8C2"/>
<path d="M78.9945 34.4628H75.643C75.5113 34.4628 75.385 34.4106 75.2919 34.3174C75.1988 34.2243 75.1465 34.098 75.1465 33.9663V29.3785C75.1881 25.8706 78.058 23.0224 81.5392 23.0224H84.8907C85.0224 23.0224 85.1487 23.0747 85.2418 23.1679C85.3349 23.261 85.3872 23.3872 85.3872 23.5189C85.3872 23.6506 85.3349 23.7769 85.2418 23.87C85.1487 23.9632 85.0224 24.0154 84.8907 24.0154C81.9116 24.0154 79.491 26.4211 79.491 29.3785V33.9663C79.491 34.098 79.4387 34.2243 79.3456 34.3174C79.2525 34.4106 79.1262 34.4628 78.9945 34.4628ZM76.1395 33.4698H78.498V29.3785C78.4995 28.3071 78.7721 27.2535 79.2904 26.3158C79.8087 25.3781 80.5558 24.5867 81.4622 24.0154C78.5545 24.057 76.1712 26.4496 76.1364 29.3841L76.1395 33.4698Z" fill="#B6B8C2"/>
<path d="M97.3803 96.7488C97.2486 96.7488 97.1223 96.6964 97.0292 96.6033C96.9361 96.5102 96.8838 96.3839 96.8838 96.2522C96.8838 96.1206 96.9361 95.9942 97.0292 95.9011C97.1223 95.808 97.2486 95.7557 97.3803 95.7557C99.2944 95.7557 100.852 94.4145 100.852 92.7648V86.3311C100.852 86.1994 100.905 86.0732 100.998 85.9801C101.091 85.8869 101.217 85.8346 101.349 85.8346C101.48 85.8346 101.607 85.8869 101.7 85.9801C101.793 86.0732 101.845 86.1994 101.845 86.3311V92.7648C101.845 94.9619 99.8424 96.7488 97.3803 96.7488Z" fill="#B6B8C2"/>
<path d="M122.479 61.8782H119.858C120.774 61.8781 121.682 62.0585 122.528 62.4092C123.375 62.7598 124.144 63.2738 124.792 63.9218C125.44 64.5698 125.954 65.3391 126.304 66.1858C126.655 67.0324 126.835 67.9398 126.835 68.8561C126.835 76.528 120.589 82.7729 112.879 82.7729H115.501C123.173 82.7729 129.456 76.528 129.456 68.8561C129.418 65.0006 126.334 61.8782 122.479 61.8782Z" fill="#B6B8C2"/>
<path d="M115.502 83.2702H112.879C112.748 83.2702 112.621 83.2178 112.528 83.1247C112.435 83.0316 112.383 82.9053 112.383 82.7736C112.383 82.642 112.435 82.5156 112.528 82.4225C112.621 82.3294 112.748 82.2771 112.879 82.2771C120.301 82.2771 126.34 76.2568 126.34 68.8562C126.338 67.1379 125.655 65.4904 124.44 64.2753C123.225 63.0602 121.577 62.3767 119.859 62.3748C119.727 62.3748 119.601 62.3224 119.508 62.2293C119.415 62.1362 119.363 62.0099 119.363 61.8782C119.363 61.7465 119.415 61.6202 119.508 61.5271C119.601 61.434 119.727 61.3817 119.859 61.3817H122.479C126.56 61.3817 129.912 64.7332 129.953 68.8512C129.953 76.8042 123.47 83.2702 115.502 83.2702ZM123.813 62.5156C124.889 63.1871 125.777 64.1214 126.393 65.2307C127.008 66.3399 127.331 67.5875 127.332 68.8562C127.332 74.4364 124.135 79.2831 119.472 81.6807C124.96 79.9869 128.959 74.8783 128.959 68.8562C128.93 65.7455 126.72 63.1363 123.813 62.5156Z" fill="#B6B8C2"/>
<path d="M101.585 37.4736H93.6055C100.004 37.4736 105.364 41.7909 107.021 47.6523L111.8 51.1217L110.683 61.8775H115.54V51.4301C115.503 43.757 109.257 37.4736 101.585 37.4736Z" fill="#B6B8C2"/>
<path d="M115.539 62.3728H110.682C110.613 62.3728 110.544 62.3583 110.481 62.33C110.417 62.3018 110.36 62.2606 110.314 62.209C110.267 62.1572 110.232 62.0963 110.211 62.0301C110.189 61.9639 110.182 61.894 110.19 61.8248L111.277 51.3544L106.728 48.0526C106.638 47.9869 106.572 47.8932 106.541 47.7863C104.907 42.0062 99.5901 37.9695 93.6039 37.9695C93.4723 37.9695 93.346 37.9172 93.2528 37.8241C93.1597 37.731 93.1074 37.6046 93.1074 37.473C93.1074 37.3413 93.1597 37.215 93.2528 37.1219C93.346 37.0288 93.4723 36.9764 93.6039 36.9764H101.584C109.514 36.9764 115.997 43.4591 116.037 51.4264V61.8763C116.037 61.9416 116.024 62.0063 115.999 62.0666C115.974 62.127 115.937 62.1817 115.891 62.2279C115.845 62.274 115.79 62.3105 115.729 62.3354C115.669 62.3603 115.604 62.373 115.539 62.3728ZM111.233 61.3798H115.042V51.4289C115.005 44.0084 108.968 37.9695 101.583 37.9695H98.8329C100.886 38.7769 102.729 40.041 104.222 41.6661C105.715 43.2912 106.818 45.2347 107.448 47.3494L112.091 50.7189C112.162 50.7701 112.217 50.8389 112.253 50.9185C112.288 50.998 112.302 51.0854 112.293 51.172L111.233 61.3798Z" fill="#B6B8C2"/>
<path d="M111.993 86.2784H93.2574C83.6193 86.2784 75.832 78.4527 75.832 68.8531" fill="#E7E7EB"/>
<path d="M111.994 86.775H93.2578C83.3758 86.775 75.3359 78.7351 75.3359 68.8531C75.3359 68.7214 75.3882 68.5951 75.4814 68.502C75.5745 68.4089 75.7008 68.3566 75.8325 68.3566C75.9641 68.3566 76.0904 68.4089 76.1836 68.502C76.2767 68.5951 76.329 68.7214 76.329 68.8531C76.329 78.1877 83.9232 85.7819 93.2578 85.7819H111.994C112.126 85.7819 112.252 85.8342 112.345 85.9273C112.438 86.0204 112.491 86.1468 112.491 86.2784C112.491 86.4101 112.438 86.5364 112.345 86.6296C112.252 86.7227 112.126 86.775 111.994 86.775Z" fill="#B6B8C2"/>
<path d="M72.3623 61.8782C73.2787 61.8779 74.1862 62.0582 75.0329 62.4088C75.8797 62.7594 76.649 63.2734 77.297 63.9214C77.945 64.5694 78.459 65.3387 78.8096 66.1854C79.1602 67.0322 79.3405 67.9397 79.3403 68.8561C79.3379 71.1451 79.787 73.4121 80.6619 75.5273C81.5367 77.6425 82.8202 79.5644 84.4388 81.183C86.0573 82.8016 87.9792 84.085 90.0944 84.9599C92.2097 85.8347 94.4766 86.2838 96.7656 86.2815H115.502C117.791 86.2838 120.058 85.8347 122.173 84.9599C124.288 84.085 126.21 82.8016 127.829 81.183C129.447 79.5644 130.731 77.6425 131.606 75.5273C132.48 73.4121 132.93 71.1451 132.927 68.8561C132.927 67.9396 132.747 67.0321 132.396 66.1853C132.046 65.3386 131.532 64.5692 130.884 63.9212C130.236 63.2731 129.466 62.7592 128.619 62.4086C127.773 62.0581 126.865 61.8778 125.949 61.8782H72.3623Z" fill="#E7E7EB"/>
<path d="M115.502 86.778H96.7661C86.8841 86.778 78.8436 78.7382 78.8436 68.8562C78.8418 67.1379 78.1584 65.4904 76.9434 64.2753C75.7284 63.0602 74.0811 62.3767 72.3627 62.3748C72.231 62.3748 72.1048 62.3224 72.0116 62.2293C71.9185 62.1362 71.8662 62.0099 71.8662 61.8782C71.8662 61.7465 71.9185 61.6202 72.0116 61.5271C72.1048 61.434 72.231 61.3817 72.3627 61.3817H125.948C127.93 61.3835 129.83 62.1715 131.232 63.5728C132.633 64.9741 133.422 66.8742 133.424 68.8562C133.424 78.7382 125.384 86.778 115.502 86.778ZM76.0829 62.3748C77.2231 63.0298 78.1704 63.9739 78.8294 65.1118C79.4884 66.2497 79.8358 67.5412 79.8366 68.8562C79.8366 78.1908 87.4309 85.785 96.7661 85.785H115.502C124.837 85.785 132.431 78.1908 132.431 68.8562C132.429 67.1375 131.745 65.4899 130.53 64.2748C129.314 63.0597 127.666 62.3764 125.948 62.3748H76.0829Z" fill="#B6B8C2"/>
<path d="M115.503 83.2689H96.7667C88.8224 83.2689 82.3533 76.7856 82.3533 68.8164C82.3514 67.1 81.6694 65.4542 80.4567 64.2395C79.2441 63.0247 77.5995 62.3399 75.8831 62.335H75.8725C75.7408 62.335 75.6145 62.2827 75.5214 62.1896C75.4283 62.0964 75.376 61.9701 75.376 61.8384C75.376 61.7068 75.4283 61.5805 75.5214 61.4874C75.6145 61.3943 75.7408 61.3419 75.8725 61.3419H75.8849L122.48 61.381C126.561 61.381 129.914 64.7326 129.954 68.8506C129.954 76.803 123.471 83.2689 115.503 83.2689ZM79.597 62.338C80.736 62.9934 81.6822 63.9372 82.3404 65.0745C82.9986 66.2118 83.3456 67.5024 83.3464 68.8164C83.3464 76.2382 89.3667 82.2758 96.7667 82.2758H115.503C122.923 82.2758 128.961 76.2555 128.961 68.8555C128.926 65.2837 126.019 62.3741 122.48 62.3741L79.597 62.338Z" fill="#B6B8C2"/>
<path d="M110.26 114.226L74.0976 114.188C69.0207 114.188 64.8896 110.057 64.8896 104.979V101.112C64.8896 100.98 64.942 100.854 65.0351 100.761C65.1282 100.668 65.2545 100.615 65.3862 100.615H118.972C119.104 100.615 119.23 100.668 119.324 100.761C119.417 100.854 119.469 100.98 119.469 101.112V105.015C119.469 110.095 115.338 114.226 110.26 114.226ZM65.8833 101.611V104.979C65.8833 109.509 69.5693 113.195 74.0989 113.195L110.262 113.233C114.792 113.233 118.477 109.547 118.477 105.017V101.608L65.8833 101.611Z" fill="#B6B8C2"/>
<path d="M107.762 96.7494H88.9798C86.7727 96.7494 84.9766 94.9136 84.9766 92.6575V84.427C84.9765 84.3423 84.9982 84.259 85.0395 84.185C85.0808 84.111 85.1403 84.0489 85.2124 84.0044C85.2844 83.9595 85.3667 83.934 85.4514 83.9303C85.5361 83.9266 85.6203 83.9448 85.6959 83.9833C88.04 85.1687 90.6304 85.7853 93.2573 85.7831H111.269C111.4 85.7831 111.527 85.8355 111.62 85.9286C111.713 86.0217 111.765 86.148 111.765 86.2797V92.6568C111.765 94.9135 109.97 96.7494 107.762 96.7494ZM85.9696 85.2122V92.66C85.9696 94.3978 87.2916 95.7589 88.9798 95.7589H107.762C109.451 95.7589 110.772 94.3978 110.772 92.66V86.775H93.2573C90.7445 86.7785 88.26 86.2457 85.9696 85.2122Z" fill="#B6B8C2"/>
<path d="M85.9233 92.6612V84.6437C84.3079 83.891 82.8177 82.8945 81.5049 81.6893V92.6612C81.5049 94.656 83.0689 96.2517 85.024 96.2517H89.4424C87.4861 96.292 85.9233 94.6572 85.9233 92.6612Z" fill="#B6B8C2"/>
<path d="M89.3727 96.7488H85.0244C82.8105 96.7488 81.0088 94.9148 81.0088 92.6612V81.6894C81.0088 81.593 81.0369 81.4988 81.0896 81.4181C81.1423 81.3375 81.2173 81.2739 81.3055 81.2351C81.3936 81.1964 81.4912 81.1842 81.5861 81.1999C81.6811 81.2157 81.7695 81.2587 81.8405 81.3238C83.1162 82.4943 84.5638 83.4624 86.1329 84.1943C86.2185 84.2343 86.291 84.2978 86.3418 84.3775C86.3926 84.4573 86.4196 84.5498 86.4196 84.6443V92.6612C86.4184 93.0818 86.5007 93.4985 86.6616 93.887C86.8226 94.2755 87.0591 94.6282 87.3574 94.9247C87.8778 95.4416 88.5767 95.7391 89.31 95.7558H89.4428C89.5736 95.7558 89.6992 95.8074 89.7922 95.8994C89.8851 95.9915 89.938 96.1165 89.9393 96.2473C89.9407 96.3783 89.8902 96.5045 89.7989 96.5984C89.7077 96.6923 89.583 96.7464 89.4521 96.7488H89.3727ZM82.0018 82.773V92.6612C82.0018 94.3674 83.3573 95.7558 85.0244 95.7558H86.7914C86.7479 95.7161 86.7051 95.6764 86.6623 95.6317C86.2699 95.2425 85.9587 94.7793 85.7466 94.269C85.5345 93.7587 85.4257 93.2114 85.4266 92.6587V84.9546C84.2058 84.36 83.0568 83.628 82.0018 82.773Z" fill="#B6B8C2"/>
<path d="M88.4791 56.2874L89.25 48.8086L91.4843 47.8062L82.7717 45.4546L73.5215 54.7072L75.4455 61.8776H83.8497L83.6573 59.6432L88.4791 56.2874Z" fill="#CED0D6"/>
<path d="M83.8517 62.3741H75.4456C75.3365 62.374 75.2304 62.338 75.1438 62.2716C75.0572 62.2052 74.9949 62.112 74.9665 62.0067L73.0425 54.8357C73.0198 54.7515 73.0197 54.6629 73.0421 54.5787C73.0646 54.4945 73.1088 54.4176 73.1703 54.3559L82.4224 45.1039C82.484 45.0422 82.5608 44.9979 82.645 44.9753C82.7292 44.9528 82.8179 44.9528 82.9021 44.9754L91.6154 47.3271C91.7143 47.3538 91.8025 47.4104 91.868 47.4891C91.9334 47.5679 91.9729 47.665 91.981 47.7671C91.9891 47.8692 91.9654 47.9713 91.9132 48.0594C91.8609 48.1475 91.7827 48.2173 91.6893 48.2593L89.715 49.145L88.9702 56.3383C88.9629 56.4094 88.9403 56.4781 88.904 56.5397C88.8677 56.6013 88.8185 56.6543 88.7598 56.6951L84.1776 59.8847L84.3458 61.8354C84.3516 61.9039 84.3431 61.9729 84.3209 62.0379C84.2987 62.103 84.2632 62.1627 84.2167 62.2133C84.1702 62.2639 84.1139 62.3043 84.051 62.332C83.9882 62.3596 83.9204 62.374 83.8517 62.3741ZM75.828 61.381H83.3105L83.164 59.6842C83.1566 59.5972 83.1723 59.5098 83.2095 59.4308C83.2466 59.3518 83.304 59.284 83.3757 59.2342L88.007 56.0068L88.7517 48.7546C88.7608 48.668 88.7925 48.5853 88.8436 48.5149C88.8946 48.4444 88.9634 48.3886 89.0428 48.353L90.0073 47.9186L82.9164 46.0044L74.0703 54.8506L75.828 61.381Z" fill="#B6B8C2"/>
<path d="M101.16 43.4536L89.248 48.8123L88.4766 56.2911L94.3727 52.1663L106.209 57.6789L106.593 61.8813H110.641L111.758 51.1255L101.16 43.4536Z" fill="#CED0D6"/>
<path d="M110.645 62.3748H106.597C106.473 62.3753 106.353 62.3292 106.261 62.2457C106.169 62.1621 106.112 62.0472 106.1 61.9235L105.741 58.0054L94.4233 52.7342L88.7599 56.6951C88.6819 56.7497 88.5899 56.7807 88.4948 56.7844C88.3998 56.7882 88.3056 56.7645 88.2236 56.7163C88.1417 56.6679 88.0754 56.597 88.0326 56.5121C87.9898 56.4272 87.9723 56.3317 87.9822 56.2371L88.753 48.7583C88.7619 48.6717 88.7933 48.589 88.8442 48.5184C88.895 48.4479 88.9636 48.3919 89.0429 48.3561L100.956 42.9974C101.036 42.9619 101.123 42.9478 101.211 42.9566C101.298 42.9654 101.381 42.9968 101.452 43.0477L112.053 50.7196C112.124 50.7707 112.18 50.8395 112.216 50.9192C112.251 50.9988 112.265 51.0864 112.256 51.1732L111.139 61.9298C111.126 62.052 111.069 62.1651 110.977 62.2473C110.886 62.3295 110.767 62.375 110.645 62.3748ZM107.049 61.3817H110.196L111.239 51.3563L101.103 44.0209L89.7132 49.145L89.0826 55.2584L94.0912 51.7567C94.1628 51.7063 94.2465 51.6757 94.3336 51.6681C94.4208 51.6605 94.5085 51.676 94.5878 51.7132L106.424 57.2258C106.502 57.2625 106.57 57.3192 106.62 57.3902C106.67 57.4612 106.7 57.544 106.708 57.6305L107.049 61.3817Z" fill="#B6B8C2"/>
<path d="M83.8506 61.8782L83.6582 59.642L94.3756 52.1632L106.211 57.6764L106.596 61.8782H83.8506Z" fill="#CED0D6"/>
<path d="M106.596 62.3747H83.8506C83.726 62.3752 83.6058 62.3288 83.5138 62.2447C83.4218 62.1607 83.3648 62.0451 83.3541 61.921L83.161 59.6867C83.1535 59.5998 83.169 59.5125 83.2059 59.4335C83.2429 59.3545 83.2999 59.2866 83.3714 59.2367L94.0882 51.7585C94.1598 51.7082 94.2435 51.6778 94.3307 51.6703C94.4179 51.6628 94.5055 51.6784 94.5847 51.7157L106.421 57.2283C106.499 57.265 106.567 57.3216 106.617 57.3926C106.667 57.4636 106.697 57.5465 106.705 57.633L107.091 61.8354C107.097 61.9041 107.089 61.9734 107.067 62.0388C107.044 62.1042 107.009 62.1643 106.962 62.2152C106.916 62.266 106.859 62.3064 106.796 62.3338C106.733 62.3613 106.664 62.3753 106.596 62.3747ZM84.3061 61.3817H106.051L105.741 58.0053L94.4227 52.7342L84.1758 59.8847L84.3061 61.3817Z" fill="#B6B8C2"/>
</svg>
