<svg width="176" height="144" viewBox="0 0 176 144" fill="none" xmlns="http://www.w3.org/2000/svg">
<path d="M88.5805 48.5354L3.49414 91.096L88.4043 134.005L173.496 91.4454L88.5805 48.5354Z" fill="#E7E7EB"/>
<path d="M88.4067 134.501C88.3288 134.501 88.2521 134.483 88.1826 134.448L3.27248 91.5392C3.19033 91.4977 3.12134 91.4341 3.07322 91.3556C3.02511 91.2772 2.99976 91.1868 3 91.0948C3.00017 91.0028 3.0259 90.9126 3.07434 90.8343C3.12279 90.7561 3.19203 90.6928 3.27434 90.6516L88.3607 48.091C88.43 48.0562 88.5064 48.0381 88.5839 48.0381C88.6614 48.0381 88.7378 48.0562 88.807 48.091L173.719 91.0017C173.801 91.0432 173.87 91.1068 173.918 91.1853C173.966 91.2637 173.992 91.354 173.991 91.4461C173.991 91.5381 173.966 91.6283 173.917 91.7066C173.869 91.7848 173.799 91.8481 173.717 91.8893L88.6289 134.449C88.5598 134.483 88.4838 134.501 88.4067 134.501ZM4.60012 91.0985L88.4079 133.449L172.389 91.4411L88.5805 49.091L4.60012 91.0985Z" fill="#B6B8C2"/>
<path d="M88.4072 134.007V138.258L173.495 95.696V91.4468L88.4072 134.007Z" fill="#CED0D6"/>
<path d="M88.4067 138.754C88.3145 138.755 88.2242 138.729 88.146 138.68C88.074 138.635 88.0145 138.573 87.9733 138.499C87.932 138.426 87.9102 138.342 87.9102 138.258V134.007C87.9102 133.915 87.9359 133.824 87.9843 133.746C88.0328 133.667 88.1021 133.604 88.1845 133.563L173.273 91.0023C173.349 90.9645 173.433 90.9467 173.518 90.9505C173.602 90.9543 173.684 90.9796 173.756 91.024C173.828 91.0686 173.888 91.1308 173.929 91.2048C173.97 91.2788 173.992 91.3621 173.992 91.4467V95.696C173.992 95.7882 173.966 95.8787 173.918 95.9572C173.869 96.0356 173.8 96.0991 173.717 96.1404L88.6289 138.702C88.56 138.736 88.4839 138.754 88.4067 138.754ZM88.9033 134.314V137.454L173 95.3887V92.248L88.9033 134.314Z" fill="#B6B8C2"/>
<path d="M3.49414 91.0961V95.349L88.4068 138.258V134.005L3.49414 91.0961Z" fill="#B6B8C2"/>
<path d="M88.4067 138.754C88.3288 138.754 88.2521 138.736 88.1826 138.701L3.27248 95.7922C3.19052 95.7507 3.12166 95.6874 3.07356 95.6091C3.02545 95.5309 2.99999 95.4408 3 95.349V91.0961C3.00005 91.0113 3.02181 90.9279 3.06321 90.8539C3.1046 90.7799 3.16425 90.7178 3.23647 90.6734C3.3087 90.6289 3.39113 90.6036 3.47588 90.6001C3.56063 90.5965 3.64488 90.6147 3.72061 90.6529L88.6308 133.562C88.7127 133.603 88.7816 133.666 88.8297 133.745C88.8778 133.823 88.9032 133.913 88.9032 134.005V138.258C88.9032 138.389 88.8509 138.516 88.7578 138.609C88.6647 138.702 88.5384 138.754 88.4067 138.754ZM3.99124 95.0411L87.9083 137.448V134.31L3.99124 91.9036V95.0411Z" fill="#B6B8C2"/>
<path d="M88.5811 58.1431L31.1973 86.848L88.4663 115.783L145.85 87.0802L88.5811 58.1431Z" fill="#E7E7EB"/>
<path d="M88.4655 116.279C88.3877 116.278 88.311 116.26 88.2415 116.225L30.9737 87.2899C30.8915 87.2484 30.8225 87.1848 30.7744 87.1063C30.7263 87.0278 30.7009 86.9375 30.7012 86.8455C30.7013 86.7534 30.7271 86.6633 30.7755 86.585C30.824 86.5068 30.8932 86.4435 30.9755 86.4023L88.3587 57.6986C88.428 57.6638 88.5044 57.6456 88.5819 57.6456C88.6594 57.6456 88.7358 57.6638 88.805 57.6986L146.073 86.6344C146.156 86.676 146.225 86.7395 146.273 86.818C146.321 86.8965 146.346 86.9868 146.346 87.0789C146.346 87.1709 146.32 87.2611 146.272 87.3393C146.223 87.4176 146.154 87.4808 146.072 87.522L88.6877 116.226C88.6187 116.261 88.5426 116.279 88.4655 116.279ZM32.3032 86.848L88.4668 115.225L144.744 87.0751L88.5804 58.6973L32.3032 86.848Z" fill="#B6B8C2"/>
<path d="M31.1973 86.8467V91.0978L88.4657 120.033V115.782L31.1973 86.8467Z" fill="#B6B8C2"/>
<path d="M88.4655 120.53C88.3877 120.53 88.3109 120.511 88.2415 120.476L30.9737 91.5411C30.8917 91.4996 30.8228 91.4363 30.7747 91.358C30.7266 91.2798 30.7012 91.1897 30.7012 91.0979V86.848C30.7011 86.7631 30.7228 86.6797 30.7642 86.6056C30.8056 86.5314 30.8653 86.4692 30.9377 86.4247C31.0099 86.3803 31.0924 86.3552 31.1771 86.3517C31.2619 86.3483 31.3461 86.3665 31.4218 86.4049L88.6896 115.338C88.7715 115.379 88.8404 115.442 88.8885 115.521C88.9366 115.599 88.9621 115.689 88.9621 115.781V120.032C88.962 120.117 88.9402 120.2 88.8988 120.274C88.8575 120.348 88.7978 120.41 88.7256 120.455C88.6475 120.503 88.5575 120.529 88.4655 120.53ZM31.6943 90.7925L87.969 119.226V116.087L31.6943 87.6549V90.7925Z" fill="#B6B8C2"/>
<path d="M88.4658 115.782V120.033L145.85 91.3299V87.0789L88.4658 115.782Z" fill="#CED0D6"/>
<path d="M88.4663 120.53C88.3742 120.53 88.2839 120.504 88.2056 120.456C88.1335 120.411 88.074 120.349 88.0327 120.275C87.9914 120.201 87.9697 120.118 87.9697 120.033V115.782C87.9697 115.69 87.9953 115.599 88.0437 115.521C88.0922 115.442 88.1616 115.379 88.2441 115.338L145.628 86.6351C145.704 86.5973 145.788 86.5795 145.872 86.5833C145.957 86.5871 146.039 86.6124 146.111 86.6569C146.183 86.7013 146.242 86.7634 146.284 86.8372C146.325 86.9111 146.347 86.9943 146.347 87.0789V91.33C146.347 91.4222 146.321 91.5125 146.272 91.5908C146.224 91.6692 146.155 91.7326 146.072 91.7738L88.6885 120.478C88.6195 120.512 88.5434 120.53 88.4663 120.53ZM88.9628 116.089V119.23L145.354 91.0228V87.8827L88.9628 116.089Z" fill="#B6B8C2"/>
<path d="M138.573 81.6267L88.5526 106.899L38.5332 81.6267L88.5526 56.3541L138.573 81.6267Z" fill="#E7E7EB"/>
<path d="M88.5534 107.396C88.4756 107.396 88.3989 107.377 88.3293 107.342L38.3106 82.0687C38.2286 82.0272 38.1597 81.9638 38.1116 81.8856C38.0635 81.8074 38.0381 81.7173 38.0381 81.6255C38.0381 81.5336 38.0635 81.4436 38.1116 81.3654C38.1597 81.2871 38.2286 81.2238 38.3106 81.1823L88.3312 55.9098C88.4007 55.8746 88.4774 55.8563 88.5553 55.8563C88.6331 55.8563 88.7099 55.8746 88.7793 55.9098L138.8 81.1835C138.882 81.225 138.951 81.2884 138.999 81.3666C139.047 81.4448 139.072 81.5349 139.072 81.6267C139.072 81.7184 139.047 81.8081 138.999 81.8861C138.95 81.9641 138.882 82.0273 138.8 82.0687L88.7775 107.342C88.7079 107.377 88.6312 107.396 88.5534 107.396ZM39.6333 81.6267L88.5534 106.343L137.472 81.6267L88.5534 56.9103L39.6333 81.6267Z" fill="#B6B8C2"/>
<path d="M38.5332 81.6267V85.9337L88.5526 111.206V106.899L38.5332 81.6267Z" fill="#B6B8C2"/>
<path d="M88.5534 111.703C88.4756 111.703 88.3987 111.685 88.3293 111.649L38.3106 86.3768C38.2286 86.3354 38.1597 86.272 38.1116 86.1938C38.0635 86.1155 38.0381 86.0255 38.0381 85.9336V81.6267C38.0381 81.5419 38.0599 81.4585 38.1013 81.3846C38.1427 81.3106 38.2023 81.2484 38.2746 81.204C38.3468 81.1595 38.4292 81.1343 38.514 81.1307C38.5987 81.1271 38.683 81.1453 38.7587 81.1835L88.7793 106.456C88.8613 106.498 88.9302 106.561 88.9783 106.639C89.0264 106.717 89.0518 106.807 89.0518 106.899V111.206C89.0518 111.291 89.03 111.374 88.9886 111.448C88.9472 111.522 88.8876 111.584 88.8153 111.629C88.7366 111.677 88.6459 111.703 88.5534 111.703ZM39.0293 85.6283L88.0569 110.399V107.206L39.0293 82.4342V85.6283Z" fill="#B6B8C2"/>
<path d="M138.572 81.6267V85.9337L88.5518 111.206V106.899L138.572 81.6267Z" fill="#CED0D6"/>
<path d="M88.5532 111.703C88.4613 111.703 88.3713 111.677 88.2931 111.629C88.2209 111.584 88.1612 111.522 88.1198 111.448C88.0784 111.374 88.0567 111.291 88.0566 111.206V106.899C88.0566 106.807 88.0821 106.717 88.1302 106.639C88.1783 106.561 88.2471 106.498 88.3291 106.456L138.348 81.1835C138.424 81.1453 138.508 81.1271 138.593 81.1307C138.678 81.1343 138.76 81.1595 138.833 81.204C138.905 81.2484 138.965 81.3106 139.006 81.3846C139.047 81.4585 139.069 81.5419 139.069 81.6267V85.9336C139.069 86.0255 139.044 86.1155 138.996 86.1938C138.947 86.272 138.879 86.3354 138.797 86.3768L88.7773 111.649C88.7077 111.684 88.631 111.703 88.5532 111.703ZM89.0497 107.205V110.399L138.076 85.6283V82.4342L89.0497 107.205Z" fill="#B6B8C2"/>
<path d="M79.4521 62.0838V102.301L129.472 77.0287V37.0638L79.4521 62.0838Z" fill="#CED0D6"/>
<path d="M79.4526 102.8C79.361 102.799 79.2712 102.774 79.1932 102.726C79.1208 102.681 79.0611 102.619 79.0195 102.545C78.978 102.471 78.9562 102.388 78.9561 102.303V62.0825C78.956 61.9902 78.9818 61.8997 79.0304 61.8212C79.0789 61.7427 79.1484 61.6793 79.231 61.6381L129.25 36.6188C129.326 36.581 129.41 36.5631 129.495 36.5669C129.579 36.5707 129.661 36.596 129.733 36.6405C129.805 36.6849 129.865 36.747 129.906 36.8209C129.947 36.8947 129.969 36.9779 129.969 37.0626V77.0287C129.969 77.1205 129.944 77.2106 129.896 77.2888C129.847 77.367 129.779 77.4304 129.697 77.4718L79.6767 102.744C79.6074 102.78 79.5306 102.799 79.4526 102.8ZM79.9492 62.3928V101.496L128.976 76.7258V37.8707L79.9492 62.3928Z" fill="#B6B8C2"/>
<path d="M97.5942 93.6315C97.5024 93.6314 97.4123 93.6058 97.3341 93.5576C97.2619 93.5132 97.2023 93.4511 97.1609 93.3771C97.1195 93.3031 97.0977 93.2197 97.0977 93.1349V73.9557C97.0977 71.6492 100.713 68.4278 104.209 66.6464C107.15 65.1704 109.66 64.7571 110.93 65.5404C111.478 65.8787 111.768 66.4143 111.768 67.0921V86.2248C111.768 86.3167 111.743 86.4067 111.695 86.4849C111.647 86.5632 111.578 86.6265 111.496 86.668L97.8158 93.5793C97.747 93.6136 97.6711 93.6315 97.5942 93.6315ZM104.658 67.534C100.729 69.537 98.0908 72.4722 98.0908 73.9582V92.3274L110.777 85.9169V67.0909C110.777 66.7638 110.66 66.5403 110.41 66.3864C109.639 65.9097 107.559 66.0791 104.658 67.534Z" fill="#B6B8C2"/>
<path d="M108.262 84.3752V65.7545C107.161 65.9289 105.828 66.3944 104.437 67.0927C100.67 69.0169 97.5977 72.0979 97.5977 73.9606V89.7882L108.262 84.3752Z" fill="#B6B8C2"/>
<path d="M97.5942 90.2841C97.5024 90.2842 97.4124 90.2588 97.3341 90.2108C97.2618 90.1664 97.2021 90.1041 97.1607 90.03C97.1193 89.9559 97.0976 89.8724 97.0977 89.7875V73.96C97.0977 71.6541 100.713 68.4327 104.208 66.6508C105.65 65.9264 107.024 65.4472 108.181 65.2641C108.252 65.2524 108.324 65.2564 108.394 65.2758C108.463 65.2952 108.527 65.3296 108.582 65.3765C108.636 65.4234 108.679 65.4815 108.709 65.5467C108.739 65.6119 108.755 65.6828 108.755 65.7545V84.3751C108.755 84.4667 108.729 84.5566 108.682 84.6347C108.634 84.7128 108.565 84.7761 108.484 84.8177L97.8183 90.2301C97.7488 90.2651 97.6721 90.2836 97.5942 90.2841ZM107.765 66.3559C106.834 66.5732 105.772 66.9766 104.662 67.5352C100.736 69.537 98.0957 72.4734 98.0957 73.9587V88.9794L107.765 84.0704V66.3559Z" fill="#B6B8C2"/>
<path d="M79.4521 102.301L88.552 106.899L97.6507 102.303L88.5508 97.7045L79.4521 102.301Z" fill="#E7E7EB"/>
<path d="M88.5538 107.396C88.4759 107.396 88.3992 107.378 88.3297 107.343L79.2285 102.744C79.1466 102.703 79.0777 102.64 79.0296 102.561C78.9815 102.483 78.956 102.393 78.9561 102.301C78.956 102.209 78.9815 102.119 79.0296 102.041C79.0777 101.963 79.1466 101.9 79.2285 101.858L88.3278 97.2607C88.3973 97.2256 88.4741 97.2073 88.5519 97.2073C88.6297 97.2073 88.7065 97.2256 88.776 97.2607L97.8759 101.859C97.9578 101.901 98.0267 101.964 98.0748 102.042C98.1229 102.121 98.1484 102.211 98.1483 102.303C98.1484 102.394 98.1229 102.484 98.0748 102.563C98.0267 102.641 97.9578 102.704 97.8759 102.746L88.7778 107.343C88.7083 107.377 88.6316 107.396 88.5538 107.396ZM80.5537 102.303L88.5538 106.345L96.5507 102.303L88.5519 98.2606L80.5537 102.303Z" fill="#B6B8C2"/>
<path d="M106.72 97.72L97.6196 93.1219L88.5508 97.7045L97.6507 102.303L106.72 97.72Z" fill="#E7E7EB"/>
<path d="M97.6511 102.8C97.5733 102.8 97.4966 102.781 97.4271 102.746L88.3272 98.1445C88.2452 98.1031 88.1763 98.0397 88.1282 97.9614C88.0801 97.8832 88.0547 97.7932 88.0547 97.7013C88.0547 97.6095 88.0801 97.5194 88.1282 97.4412C88.1763 97.363 88.2452 97.2996 88.3272 97.2582L97.396 92.6762C97.4655 92.6411 97.5423 92.6228 97.6201 92.6228C97.6979 92.6228 97.7747 92.6411 97.8442 92.6762L106.945 97.2755C107.027 97.317 107.096 97.3803 107.144 97.4586C107.192 97.5368 107.217 97.6269 107.217 97.7187C107.217 97.8105 107.192 97.9006 107.144 97.9788C107.096 98.0571 107.027 98.1204 106.945 98.1619L97.8752 102.744C97.8058 102.78 97.7291 102.799 97.6511 102.8ZM89.6517 97.7038L97.6511 101.744L105.62 97.7181L97.6201 93.6755L89.6517 97.7038Z" fill="#B6B8C2"/>
<path d="M129.472 77.0287L120.416 81.6038L129.487 86.2167L138.572 81.6267L129.472 77.0287Z" fill="#E7E7EB"/>
<path d="M129.489 86.7133C129.411 86.7133 129.334 86.6948 129.264 86.6593L120.191 82.0463C120.109 82.0047 120.041 81.9413 119.993 81.8631C119.945 81.7848 119.92 81.6949 119.92 81.6032C119.92 81.5114 119.946 81.4215 119.994 81.3434C120.042 81.2653 120.111 81.202 120.192 81.1606L129.248 76.5855C129.317 76.5504 129.394 76.5321 129.472 76.5321C129.55 76.5321 129.626 76.5504 129.696 76.5855L138.799 81.1836C138.881 81.225 138.95 81.2884 138.998 81.3666C139.046 81.4449 139.072 81.5349 139.072 81.6268C139.072 81.7184 139.046 81.8082 138.998 81.8862C138.95 81.9642 138.881 82.0273 138.799 82.0687L129.714 86.6618C129.644 86.6962 129.567 86.7139 129.489 86.7133ZM121.516 81.605L129.489 85.66L137.473 81.6255L129.473 77.5836L121.516 81.605Z" fill="#B6B8C2"/>
<path d="M120.416 81.6038L111.345 86.1875L120.474 90.7713L129.487 86.2167L120.416 81.6038Z" fill="#E7E7EB"/>
<path d="M120.474 91.2679C120.396 91.2678 120.32 91.2495 120.251 91.2145L111.121 86.6314C111.039 86.59 110.97 86.5267 110.921 86.4485C110.873 86.3702 110.848 86.2801 110.848 86.1882C110.848 86.0963 110.873 86.0061 110.921 85.9277C110.969 85.8494 111.038 85.7859 111.12 85.7444L120.193 81.1606C120.262 81.1254 120.339 81.1071 120.417 81.1071C120.495 81.1071 120.572 81.1254 120.641 81.1606L129.712 85.7736C129.794 85.8151 129.863 85.8785 129.911 85.9568C129.959 86.035 129.984 86.125 129.984 86.2168C129.984 86.3085 129.958 86.3984 129.91 86.4765C129.862 86.5547 129.793 86.6179 129.712 86.6593L120.698 91.2139C120.628 91.2491 120.552 91.2675 120.474 91.2679ZM112.448 86.1864L120.473 90.2152L128.39 86.2155L120.416 82.1606L112.448 86.1864Z" fill="#B6B8C2"/>
<path d="M97.5945 62.8428C95.7982 62.8428 94.4072 62.1439 94.4072 61.2129V97.7031C94.4072 98.5765 95.8559 99.3331 97.5945 99.3331C99.333 99.3331 100.782 98.6348 100.782 97.7031V61.2688C100.782 62.1445 99.3914 62.8428 97.5945 62.8428Z" fill="#CED0D6"/>
<path d="M97.5946 99.8291C95.5289 99.8291 93.9102 98.8981 93.9102 97.7032V61.2136C93.9102 61.0819 93.9625 60.9556 94.0556 60.8625C94.1487 60.7694 94.275 60.717 94.4067 60.717C94.5384 60.717 94.6647 60.7694 94.7578 60.8625C94.851 60.9556 94.9033 61.0819 94.9033 61.2136C94.9033 61.7492 96.0087 62.3463 97.5946 62.3463C99.2618 62.3463 100.286 61.7201 100.286 61.2713C100.286 61.1396 100.338 61.0133 100.431 60.9202C100.524 60.8271 100.651 60.7748 100.782 60.7748C100.914 60.7748 101.04 60.8271 101.134 60.9202C101.227 61.0133 101.279 61.1396 101.279 61.2713V97.7057C101.279 98.9154 99.6962 99.8291 97.5946 99.8291ZM94.9033 62.7119V97.7057C94.9033 98.1569 95.9771 98.8385 97.5946 98.8385C99.1345 98.8385 100.286 98.2407 100.286 97.7057V62.7293C99.6292 63.1135 98.6889 63.3419 97.5946 63.3419C96.5003 63.3419 95.5599 63.1042 94.9033 62.7094V62.7119Z" fill="#B6B8C2"/>
<path d="M94.4072 61.2708V97.7051C94.4072 98.5778 95.8559 99.3344 97.5945 99.3344V62.9001C95.8559 62.8423 94.4072 62.1447 94.4072 61.2708Z" fill="#B6B8C2"/>
<path d="M97.5946 99.8291C95.5289 99.8291 93.9102 98.8981 93.9102 97.7033V61.2689C93.9102 61.1372 93.9625 61.0109 94.0556 60.9178C94.1487 60.8247 94.275 60.7723 94.4067 60.7723C94.5384 60.7723 94.6647 60.8247 94.7578 60.9178C94.851 61.0109 94.9033 61.1372 94.9033 61.2689C94.9033 61.6947 95.9585 62.347 97.6113 62.4023C97.7401 62.4066 97.8621 62.4608 97.9517 62.5535C98.0412 62.6462 98.0912 62.77 98.0911 62.8988V99.3332C98.091 99.4648 98.0386 99.5909 97.9455 99.6839C97.8524 99.7769 97.7262 99.8291 97.5946 99.8291ZM94.9033 62.717V97.7033C94.9033 98.1067 95.7604 98.6964 97.098 98.8143V63.3643C96.2824 63.283 95.4923 63.0633 94.9033 62.717Z" fill="#B6B8C2"/>
<path d="M88.4945 67.3814C86.6976 67.3814 85.3066 66.6831 85.3066 65.7515V102.241C85.3066 103.114 86.7559 103.87 88.4945 103.87C90.233 103.87 91.6824 103.172 91.6824 102.241V65.8067C91.6824 66.6831 90.2914 67.3814 88.4945 67.3814Z" fill="#CED0D6"/>
<path d="M88.4949 104.368C86.4293 104.368 84.8105 103.437 84.8105 102.242V65.7514C84.8105 65.6197 84.8629 65.4934 84.956 65.4003C85.0491 65.3072 85.1754 65.2549 85.3071 65.2549C85.4388 65.2549 85.5651 65.3072 85.6582 65.4003C85.7513 65.4934 85.8036 65.6197 85.8036 65.7514C85.8036 66.2877 86.9091 66.8848 88.4949 66.8848C90.1621 66.8848 91.1863 66.2585 91.1863 65.8098C91.1863 65.6781 91.2386 65.5518 91.3317 65.4587C91.4248 65.3655 91.5511 65.3132 91.6828 65.3132C91.8145 65.3132 91.9408 65.3655 92.0339 65.4587C92.127 65.5518 92.1794 65.6781 92.1794 65.8098V102.244C92.1794 103.454 90.596 104.368 88.4949 104.368ZM85.8036 67.251V102.241C85.8036 102.692 86.8774 103.374 88.4949 103.374C90.0349 103.374 91.1863 102.776 91.1863 102.241V67.2653C90.5296 67.6495 89.5892 67.8779 88.4949 67.8779C87.4007 67.8779 86.4603 67.6433 85.8036 67.2479V67.251Z" fill="#B6B8C2"/>
<path d="M85.3066 65.8098V102.244C85.3066 103.117 86.7559 103.874 88.4945 103.874V67.4391C86.7559 67.3808 85.3066 66.6825 85.3066 65.8098Z" fill="#B6B8C2"/>
<path d="M88.4949 104.368C86.4293 104.368 84.8105 103.433 84.8105 102.242V65.8073C84.8105 65.6756 84.8629 65.5493 84.956 65.4562C85.0491 65.3631 85.1754 65.3108 85.3071 65.3108C85.4388 65.3108 85.5651 65.3631 85.6582 65.4562C85.7513 65.5493 85.8036 65.6756 85.8036 65.8073C85.8036 66.2325 86.8588 66.8861 88.5117 66.9413C88.6405 66.9457 88.7625 66.9999 88.8521 67.0926C88.9416 67.1852 88.9916 67.309 88.9915 67.4379V103.872C88.9912 104.004 88.9387 104.13 88.8456 104.223C88.7525 104.315 88.6264 104.368 88.4949 104.368ZM85.8036 67.2554V102.241C85.8036 102.644 86.6608 103.234 87.9984 103.352V67.9034C87.1809 67.8215 86.3927 67.6018 85.8036 67.2554Z" fill="#B6B8C2"/>
<path d="M120.373 51.3191C118.577 51.3191 117.186 50.6202 117.186 49.6892V86.1236C117.186 86.9969 118.634 87.7535 120.373 87.7535C122.111 87.7535 123.561 87.0553 123.561 86.1236V49.6892C123.561 50.6202 122.112 51.3191 120.373 51.3191Z" fill="#CED0D6"/>
<path d="M120.372 88.2476C118.306 88.2476 116.688 87.3166 116.688 86.1211V49.6867C116.688 49.555 116.74 49.4287 116.833 49.3356C116.926 49.2425 117.052 49.1902 117.184 49.1902C117.316 49.1902 117.442 49.2425 117.535 49.3356C117.628 49.4287 117.681 49.555 117.681 49.6867C117.681 50.2224 118.786 50.8201 120.372 50.8201C121.912 50.8201 123.063 50.2218 123.063 49.6867C123.063 49.555 123.116 49.4287 123.209 49.3356C123.302 49.2425 123.428 49.1902 123.56 49.1902C123.691 49.1902 123.818 49.2425 123.911 49.3356C124.004 49.4287 124.056 49.555 124.056 49.6867V86.1211C124.056 87.3333 122.475 88.2476 120.372 88.2476ZM117.681 51.1857V86.1211C117.681 86.5724 118.754 87.2545 120.372 87.2545C121.912 87.2545 123.063 86.6562 123.063 86.1211V51.1708C122.401 51.5724 121.455 51.8157 120.372 51.8157C119.278 51.8157 118.337 51.5811 117.681 51.1857Z" fill="#B6B8C2"/>
<path d="M117.186 49.6892V86.1236C117.186 86.9969 118.634 87.7535 120.373 87.7535V51.3191C118.577 51.3191 117.186 50.6202 117.186 49.6892Z" fill="#B6B8C2"/>
<path d="M120.372 88.2476C118.306 88.2476 116.688 87.3166 116.688 86.1211V49.6867C116.688 49.555 116.74 49.4287 116.833 49.3356C116.926 49.2425 117.052 49.1902 117.184 49.1902C117.316 49.1902 117.442 49.2425 117.535 49.3356C117.628 49.4287 117.681 49.555 117.681 49.6867C117.681 50.2224 118.786 50.8201 120.372 50.8201C120.504 50.8201 120.63 50.8724 120.723 50.9655C120.816 51.0587 120.868 51.185 120.868 51.3167V87.751C120.868 87.8827 120.816 88.009 120.723 88.1022C120.63 88.1953 120.504 88.2476 120.372 88.2476ZM117.681 51.1857V86.1211C117.681 86.5246 118.538 87.1142 119.875 87.2328V51.7989C118.994 51.7387 118.235 51.5196 117.681 51.1857Z" fill="#B6B8C2"/>
<path d="M129.414 46.7801C127.618 46.7801 126.227 46.0818 126.227 45.1508V81.5852C126.227 82.4578 127.675 83.2145 129.414 83.2145C131.154 83.2145 132.602 82.5162 132.602 81.5852V45.1508C132.602 46.0818 131.153 46.7801 129.414 46.7801Z" fill="#CED0D6"/>
<path d="M129.414 83.7085C127.348 83.7085 125.729 82.7775 125.729 81.5827V45.1483C125.729 45.0166 125.782 44.8903 125.875 44.7972C125.968 44.704 126.094 44.6517 126.226 44.6517C126.358 44.6517 126.484 44.704 126.577 44.7972C126.67 44.8903 126.723 45.0166 126.723 45.1483C126.723 45.6839 127.828 46.281 129.414 46.281C130.954 46.281 132.105 45.6827 132.105 45.1483C132.105 45.0166 132.158 44.8903 132.251 44.7972C132.344 44.704 132.47 44.6517 132.602 44.6517C132.733 44.6517 132.86 44.704 132.953 44.7972C133.046 44.8903 133.098 45.0166 133.098 45.1483V81.5827C133.098 82.7949 131.515 83.7085 129.414 83.7085ZM126.723 46.6472V81.5827C126.723 82.0333 127.796 82.7154 129.414 82.7154C130.954 82.7154 132.105 82.1171 132.105 81.5827V46.6317C131.443 47.0339 130.497 47.2766 129.414 47.2766C128.32 47.2766 127.379 47.042 126.723 46.6472Z" fill="#B6B8C2"/>
<path d="M126.227 45.1508V81.5852C126.227 82.4578 127.675 83.2145 129.414 83.2145V46.7801C127.618 46.7801 126.227 46.0818 126.227 45.1508Z" fill="#B6B8C2"/>
<path d="M129.414 83.7085C127.348 83.7085 125.729 82.7775 125.729 81.5827V45.1483C125.729 45.0166 125.782 44.8903 125.875 44.7972C125.968 44.704 126.094 44.6517 126.226 44.6517C126.358 44.6517 126.484 44.704 126.577 44.7972C126.67 44.8903 126.723 45.0166 126.723 45.1483C126.723 45.6839 127.828 46.281 129.414 46.281C129.546 46.281 129.672 46.3334 129.765 46.4265C129.858 46.5196 129.91 46.6459 129.91 46.7776V83.212C129.91 83.3437 129.858 83.47 129.765 83.5631C129.672 83.6562 129.546 83.7085 129.414 83.7085ZM126.723 46.6472V81.5827C126.723 81.9861 127.58 82.5758 128.917 82.6937V47.2605C128.036 47.2003 127.277 46.9812 126.723 46.6472Z" fill="#B6B8C2"/>
<path d="M38.5332 45.6597V81.6267L79.4527 102.301V66.3348L38.5332 45.6597Z" fill="#B6B8C2"/>
<path d="M79.4523 102.8C79.3744 102.8 79.2977 102.781 79.2282 102.746L38.3106 82.0686C38.2286 82.0272 38.1597 81.9638 38.1116 81.8856C38.0635 81.8073 38.0381 81.7173 38.0381 81.6254V45.6584C38.0381 45.5736 38.0599 45.4903 38.1013 45.4163C38.1427 45.3423 38.2023 45.2801 38.2746 45.2357C38.3468 45.1913 38.4292 45.166 38.514 45.1624C38.5987 45.1588 38.683 45.177 38.7587 45.2153L79.6782 65.8898C79.7602 65.9312 79.829 65.9946 79.8771 66.0728C79.9252 66.151 79.9507 66.2411 79.9507 66.3329V102.303C79.9506 102.388 79.9289 102.471 79.8875 102.545C79.8461 102.619 79.7864 102.681 79.7142 102.726C79.6355 102.774 79.5447 102.8 79.4523 102.8ZM39.0293 81.3238L78.9557 101.496V66.6395L39.0293 46.4672V81.3238Z" fill="#B6B8C2"/>
<path d="M113.562 31.765L88.5518 62.3184L138.572 37.0452L113.562 31.765Z" fill="#CED0D6"/>
<path d="M88.5533 62.8149C88.479 62.8149 88.4055 62.7981 88.3385 62.7659C88.2715 62.7337 88.2125 62.6868 88.166 62.6287C88.0947 62.5399 88.0561 62.4292 88.0566 62.3153C88.0572 62.2014 88.0969 62.0912 88.1691 62.0031L113.179 31.4497C113.237 31.3793 113.313 31.3261 113.398 31.2959C113.484 31.2657 113.577 31.2596 113.666 31.2784L138.676 36.5598C138.776 36.5811 138.868 36.633 138.938 36.7085C139.008 36.784 139.052 36.8793 139.066 36.9813C139.079 37.0833 139.06 37.187 139.012 37.2779C138.964 37.3689 138.889 37.4426 138.797 37.489L88.7774 62.7615C88.7079 62.7966 88.6312 62.8149 88.5533 62.8149ZM113.756 32.3137L90.4241 60.8163L137.088 37.2395L113.756 32.3137Z" fill="#B6B8C2"/>
<path d="M63.5422 6.49243L38.5322 37.0452L88.5522 11.7726L63.5422 6.49243Z" fill="#CED0D6"/>
<path d="M38.5328 37.5424C38.4585 37.5423 38.385 37.5256 38.318 37.4933C38.251 37.4611 38.192 37.4142 38.1455 37.3562C38.0742 37.2674 38.0356 37.1567 38.0361 37.0428C38.0367 36.9289 38.0764 36.8186 38.1486 36.7305L63.1586 6.17715C63.2166 6.10714 63.2925 6.0542 63.3782 6.02402C63.4639 5.99385 63.5562 5.98756 63.6453 6.00584L88.659 11.2867C88.7596 11.3079 88.8511 11.3598 88.921 11.4353C88.9908 11.5108 89.0355 11.6061 89.0488 11.7081C89.0621 11.8101 89.0434 11.9138 88.9953 12.0048C88.9471 12.0957 88.8719 12.1695 88.78 12.2158L38.7594 37.4884C38.6892 37.5241 38.6116 37.5426 38.5328 37.5424ZM63.7359 7.04052L40.4036 35.5438L87.0688 11.9669L63.7359 7.04052Z" fill="#B6B8C2"/>
<path d="M38.5332 41.3528V45.6597L88.5526 70.9323V66.6253L38.5332 41.3528Z" fill="#B6B8C2"/>
<path d="M88.5534 71.4288C88.4756 71.4291 88.3987 71.4108 88.3293 71.3755L38.3106 46.1029C38.2286 46.0615 38.1597 45.9981 38.1116 45.9199C38.0635 45.8416 38.0381 45.7516 38.0381 45.6597V41.3515C38.0381 41.2668 38.0599 41.1834 38.1013 41.1094C38.1427 41.0354 38.2023 40.9733 38.2746 40.9289C38.3468 40.8844 38.4292 40.8591 38.514 40.8555C38.5987 40.852 38.683 40.8701 38.7587 40.9084L88.7793 66.1809C88.8613 66.2224 88.9302 66.2857 88.9783 66.364C89.0264 66.4422 89.0518 66.5323 89.0518 66.6241V70.9311C89.0518 71.0158 89.03 71.0992 88.9886 71.1732C88.9472 71.2472 88.8876 71.3093 88.8153 71.3537C88.7367 71.4027 88.646 71.4287 88.5534 71.4288ZM39.0293 45.3544L88.0569 70.1248V66.9307L39.0293 42.1584V45.3544Z" fill="#B6B8C2"/>
<path d="M138.572 41.3528V45.6597L88.5518 70.9323V66.6253L138.572 41.3528Z" fill="#CED0D6"/>
<path d="M88.5532 71.4288C88.4613 71.4287 88.3713 71.4032 88.2931 71.355C88.2209 71.3106 88.1612 71.2484 88.1198 71.1744C88.0784 71.1004 88.0567 71.0171 88.0566 70.9323V66.6253C88.0566 66.5335 88.0821 66.4434 88.1302 66.3652C88.1783 66.287 88.2471 66.2236 88.3291 66.1821L138.348 40.9096C138.424 40.8714 138.508 40.8532 138.593 40.8568C138.678 40.8604 138.76 40.8856 138.833 40.9301C138.905 40.9745 138.965 41.0366 139.006 41.1106C139.047 41.1846 139.069 41.268 139.069 41.3528V45.6597C139.069 45.7516 139.044 45.8416 138.996 45.9198C138.947 45.9981 138.879 46.0614 138.797 46.1029L88.7773 71.3754C88.7077 71.4104 88.631 71.4286 88.5532 71.4288ZM89.0497 66.9307V70.1248L138.076 45.3543V42.1584L89.0497 66.9307Z" fill="#B6B8C2"/>
<path d="M38.5332 37.0459V41.3529L88.5526 66.6254V62.3185L38.5332 37.0459Z" fill="#B6B8C2"/>
<path d="M88.5534 67.1219C88.4756 67.1221 88.3987 67.1038 88.3293 67.0686L38.3106 41.796C38.2286 41.7546 38.1597 41.6912 38.1116 41.613C38.0635 41.5347 38.0381 41.4447 38.0381 41.3528V37.0459C38.0381 36.9611 38.0599 36.8777 38.1013 36.8037C38.1427 36.7297 38.2023 36.6676 38.2746 36.6232C38.3466 36.5782 38.4291 36.5527 38.5139 36.5491C38.5988 36.5456 38.6831 36.564 38.7587 36.6027L88.7793 61.8753C88.8613 61.9167 88.9302 61.9801 88.9783 62.0583C89.0264 62.1365 89.0518 62.2266 89.0518 62.3184V66.6254C89.0518 66.7102 89.03 66.7935 88.9886 66.8675C88.9472 66.9415 88.8876 67.0037 88.8153 67.0481C88.7366 67.0966 88.6459 67.1222 88.5534 67.1219ZM39.0293 41.0474L88.0569 65.8179V62.6238L39.0293 37.8534V41.0474Z" fill="#B6B8C2"/>
<path d="M138.572 37.0459V41.3529L88.5518 66.6254V62.3185L138.572 37.0459Z" fill="#CED0D6"/>
<path d="M88.5532 67.1219C88.4613 67.1218 88.3713 67.0963 88.2931 67.0481C88.2209 67.0037 88.1612 66.9415 88.1198 66.8675C88.0784 66.7935 88.0567 66.7102 88.0566 66.6254V62.3184C88.0566 62.2266 88.0821 62.1365 88.1302 62.0583C88.1783 61.9801 88.2471 61.9167 88.3291 61.8753L138.348 36.6027C138.424 36.5645 138.508 36.5463 138.593 36.5499C138.678 36.5535 138.76 36.5787 138.833 36.6232C138.905 36.6676 138.965 36.7298 139.006 36.8037C139.047 36.8777 139.069 36.9611 139.069 37.0459V41.3516C139.069 41.4434 139.044 41.5335 138.996 41.6117C138.947 41.69 138.879 41.7533 138.797 41.7948L88.7773 67.0686C88.7077 67.1035 88.631 67.1217 88.5532 67.1219ZM89.0497 62.6238V65.8179L138.076 41.0475V37.8534L89.0497 62.6238Z" fill="#B6B8C2"/>
<path d="M63.5432 6.49243L38.5332 37.0458L88.5526 62.3184L113.563 31.765L63.5432 6.49243Z" fill="#E7E7EB"/>
<path d="M88.5536 62.815C88.4757 62.815 88.3989 62.7967 88.3295 62.7616L38.3107 37.489C38.2443 37.4555 38.1863 37.4074 38.141 37.3484C38.0956 37.2895 38.0641 37.2211 38.0488 37.1483C38.0334 37.0756 38.0346 37.0003 38.0522 36.9281C38.0699 36.856 38.1035 36.7886 38.1506 36.7312L63.1606 6.17779C63.2322 6.09033 63.3315 6.02993 63.4421 6.00657C63.5527 5.98321 63.668 5.99828 63.7689 6.0493L113.786 31.3219C113.853 31.3554 113.91 31.4034 113.956 31.4623C114.001 31.5211 114.032 31.5894 114.048 31.662C114.063 31.7348 114.062 31.8101 114.044 31.8824C114.027 31.9548 113.993 32.0222 113.946 32.0797L88.9365 62.6331C88.8901 62.6898 88.8316 62.7355 88.7654 62.767C88.6992 62.7984 88.6269 62.8148 88.5536 62.815ZM39.3088 36.8826L88.4213 61.6965L112.788 31.9308L63.6745 7.11688L39.3088 36.8826Z" fill="#B6B8C2"/>
<path d="M88.5523 11.7732L63.543 6.49243L113.562 31.765L138.572 37.0458L88.5523 11.7732Z" fill="#E7E7EB"/>
<path d="M138.573 37.5424C138.538 37.5422 138.504 37.5386 138.47 37.5318L113.46 32.251C113.418 32.242 113.378 32.2276 113.339 32.2082L63.3187 6.93563C63.211 6.88125 63.1267 6.78953 63.0817 6.67759C63.0367 6.56564 63.034 6.44114 63.0741 6.32735C63.1142 6.21367 63.1941 6.11844 63.2992 6.0594C63.4043 6.00036 63.5272 5.98154 63.6451 6.00646L88.6589 11.2873C88.7009 11.2961 88.7416 11.3105 88.7799 11.3301L138.8 36.6027C138.907 36.657 138.992 36.7486 139.037 36.8604C139.082 36.9722 139.084 37.0966 139.044 37.2103C139.01 37.3079 138.946 37.3923 138.862 37.4519C138.777 37.5114 138.676 37.543 138.573 37.5424ZM113.729 31.2927L134.957 35.774L88.3876 12.2456L67.1601 7.76362L113.729 31.2927Z" fill="#B6B8C2"/>
<path d="M85.3778 65.518C85.3 65.518 85.2232 65.4997 85.1537 65.4646L41.484 43.3997C41.4257 43.3704 41.3738 43.3298 41.3313 43.2804C41.2887 43.231 41.2562 43.1736 41.2358 43.1116C41.2154 43.0497 41.2075 42.9843 41.2123 42.9193C41.2172 42.8542 41.2348 42.7907 41.2642 42.7325C41.2937 42.6743 41.3343 42.6225 41.3837 42.58C41.4332 42.5374 41.4905 42.5051 41.5525 42.4847C41.6145 42.4644 41.6798 42.4565 41.7449 42.4614C41.8099 42.4663 41.8733 42.484 41.9315 42.5134L85.6019 64.5782C85.6601 64.6077 85.7119 64.6483 85.7544 64.6977C85.7969 64.7472 85.8293 64.8045 85.8496 64.8665C85.87 64.9284 85.8779 64.9938 85.873 65.0588C85.8681 65.1239 85.8504 65.1873 85.821 65.2455C85.7795 65.3274 85.7162 65.3963 85.6379 65.4444C85.5597 65.4925 85.4696 65.518 85.3778 65.518Z" fill="#CED0D6"/>
</svg>
