<?xml version="1.0" encoding="iso-8859-1"?>
<!-- Uploaded to: SVG Repo, www.svgrepo.com, Generator: SVG Repo Mixer Tools -->
<svg height="800px" width="800px" version="1.1" id="Layer_1" xmlns="http://www.w3.org/2000/svg" xmlns:xlink="http://www.w3.org/1999/xlink" 
	 viewBox="0 0 512.001 512.001" xml:space="preserve">
<path style="fill:#CAD1D8;" d="M24,16h464c13.254,0,24,10.745,24,24v432c0,13.254-10.745,24-24,24H24C10.745,496,0,485.255,0,472V40
	C0,26.745,10.745,16,24,16z"/>
<g>
	<circle style="fill:#9BA7AF;" cx="24.002" cy="47.995" r="7.998"/>
	<circle style="fill:#9BA7AF;" cx="56.002" cy="47.995" r="7.998"/>
	<circle style="fill:#9BA7AF;" cx="88.002" cy="47.995" r="7.998"/>
</g>
<path style="fill:#FFFFFF;" d="M24,80h464c4.418,0,8,3.582,8,8v384c0,4.418-3.582,8-8,8H24c-4.418,0-8-3.582-8-8V88
	C16,83.582,19.582,80,24,80z"/>
<path style="fill:#E2E5E7;" d="M120,40h368c4.418,0,8,3.582,8,8l0,0c0,4.418-3.582,8-8,8H120c-4.418,0-8-3.582-8-8l0,0
	C112,43.582,115.582,40,120,40z"/>
<g>
	<path style="fill:#CAD1D8;" d="M224,168.001h224c4.418,0,8,3.582,8,8l0,0c0,4.418-3.582,8.001-8,8.001H224
		c-4.418,0-8.001-3.582-8.001-8.001l0,0C216.001,171.582,219.582,168.001,224,168.001z"/>
	<path style="fill:#CAD1D8;" d="M224,232.001h176c4.418,0,8,3.582,8,8l0,0c0,4.418-3.582,8.001-8,8.001H224
		c-4.418,0-8.001-3.582-8.001-8.001l0,0C216.001,235.582,219.582,232.001,224,232.001z"/>
	<path style="fill:#CAD1D8;" d="M224,200.001h136c4.418,0,8,3.582,8,8l0,0c0,4.418-3.582,8.001-8,8.001H224
		c-4.418,0-8.001-3.582-8.001-8.001l0,0C216.001,203.582,219.582,200.001,224,200.001z"/>
</g>
<path style="fill:#595A66;" d="M272,144L272,144c0,4.418-3.582,8.001-8,8.001h-40c-4.418,0-8.001-3.582-8.001-8.001l0,0
	c0-4.418,3.582-8.001,8.001-8.001h40C268.418,136.001,272,139.582,272,144z"/>
<g>
	<path style="fill:#CAD1D8;" d="M224,336h224c4.418,0,8,3.582,8,8l0,0c0,4.418-3.582,8-8,8H224c-4.418,0-8.001-3.582-8.001-8l0,0
		C216.001,339.582,219.582,336,224,336z"/>
	<path style="fill:#CAD1D8;" d="M224,400h176c4.418,0,8,3.582,8,8l0,0c0,4.418-3.582,8-8,8H224c-4.418,0-8.001-3.582-8.001-8l0,0
		C216.001,403.582,219.582,400,224,400z"/>
	<path style="fill:#CAD1D8;" d="M224,368h136c4.418,0,8,3.582,8,8l0,0c0,4.418-3.582,8-8,8H224c-4.418,0-8.001-3.582-8.001-8l0,0
		C216.001,371.582,219.582,368,224,368z"/>
</g>
<path style="fill:#595A66;" d="M272,312L272,312c0,4.418-3.582,8-8,8h-40c-4.418,0-8.001-3.582-8.001-8l0,0c0-4.418,3.582-8,8.001-8
	h40C268.418,304,272,307.582,272,312z"/>
<path style="fill:#EE2C39;" d="M64,308h112c2.209,0,4,1.791,4,4v96c0,2.209-1.791,4-4,4H64c-2.209,0-4-1.791-4-4v-96
	C60,309.791,61.791,308,64,308z"/>
<g>
	<path style="fill:#CC202C;" d="M176,312v96H64v-96H176 M176,304H64c-4.418,0-8,3.582-8,8v96c0,4.418,3.582,8,8,8h112
		c4.418,0,8.001-3.582,8.001-8v-96C184.001,307.582,180.418,304,176,304L176,304z"/>
	<path style="fill:#CC202C;" d="M133.76,364.4l-24.001-12c-1.984-0.972-4.38-0.152-5.352,1.832c-0.27,0.551-0.409,1.155-0.408,1.768
		v24c-0.004,2.209,1.783,4.004,3.992,4.008c0.613,0.001,1.217-0.138,1.768-0.408l24.001-12c1.988-0.962,2.819-3.356,1.856-5.343
		C135.225,365.446,134.57,364.792,133.76,364.4z"/>
</g>
<path style="fill:#FFFFFF;" d="M133.76,356.4l-24.001-12c-1.984-0.972-4.38-0.152-5.352,1.832c-0.27,0.551-0.409,1.155-0.408,1.768
	v24c-0.004,2.209,1.783,4.004,3.992,4.008c0.613,0.001,1.217-0.138,1.768-0.408l24.001-12c1.988-0.962,2.819-3.356,1.856-5.343
	C135.225,357.446,134.57,356.793,133.76,356.4z"/>
<path style="fill:#EE2C39;" d="M64,140h112c2.209,0,4,1.791,4,4v96c0,2.209-1.791,4-4,4H64c-2.209,0-4-1.791-4-4v-96
	C60,141.791,61.791,140,64,140z"/>
<g>
	<path style="fill:#CC202C;" d="M176,144v96H64v-96H176 M176,136.001H64c-4.418,0-8,3.582-8,8v96c0,4.418,3.582,8.001,8,8.001h112
		c4.418,0,8.001-3.582,8.001-8.001v-96C184.001,139.582,180.418,136.001,176,136.001L176,136.001z"/>
	<path style="fill:#CC202C;" d="M133.76,196.4l-24.001-12c-1.984-0.972-4.38-0.152-5.352,1.832c-0.27,0.551-0.409,1.155-0.408,1.768
		V212c-0.004,2.209,1.783,4.004,3.992,4.008c0.613,0.001,1.217-0.138,1.768-0.408l24.001-12c1.988-0.962,2.819-3.356,1.856-5.343
		C135.225,197.446,134.57,196.793,133.76,196.4z"/>
</g>
<path style="fill:#FFFFFF;" d="M133.76,188.4l-24.001-12c-1.984-0.972-4.38-0.152-5.352,1.832c-0.27,0.551-0.409,1.155-0.408,1.768
	V204c-0.004,2.209,1.783,4.004,3.992,4.008c0.613,0.001,1.217-0.138,1.768-0.408l24.001-12c1.988-0.962,2.819-3.356,1.856-5.343
	C135.225,189.446,134.57,188.792,133.76,188.4z"/>
</svg>