<?xml version="1.0" encoding="iso-8859-1"?>
<!-- Uploaded to: SVG Repo, www.svgrepo.com, Generator: SVG Repo Mixer Tools -->
<svg xmlns="http://www.w3.org/2000/svg" xmlns:xlink="http://www.w3.org/1999/xlink" version="1.1" id="Layer_1"  viewBox="0 0 408 408" xml:space="preserve" width="512" height="512">
<g>
	<rect x="38.182" style="fill:#E6E6E6;" width="331.636" height="408"/>
	<polygon style="fill:#EAB96C;" points="204,299.957 217.352,322.082 242.519,327.943 225.603,347.478 227.806,373.225 204,363.173    180.194,373.225 182.397,347.478 165.481,327.943 190.648,322.082  "/>
	<path style="fill:#4288BC;" d="M182.053,154.489v28.94h-88.71v-28.94c0-14.87,9.38-27.53,22.54-32.43c5.94,7.15,37.69,7.15,43.63,0   C172.673,126.949,182.053,139.619,182.053,154.489z"/>
	<path style="fill:#EFC197;" d="M115.883,122.059c-7.7-9.26-12.61-22.23-12.61-32.96c0-19.01,15.41-34.42,34.43-34.42   c19.01,0,34.42,15.41,34.42,34.42c0,10.73-4.91,23.7-12.61,32.96c-5.94,7.15-13.54,12.09-21.81,12.09   C129.423,134.149,121.823,129.209,115.883,122.059z"/>
	<path style="fill:#3679A3;" d="M119.04,125.479c-1.096-1.07-2.152-2.21-3.157-3.42c-13.16,4.9-22.54,17.56-22.54,32.43v28.94h9.93   v-28.94C103.273,142.326,109.553,131.648,119.04,125.479z"/>
	<path style="fill:#D8AB87;" d="M125.813,122.059c-7.7-9.26-12.61-22.23-12.61-32.96c0-17.324,12.799-31.652,29.464-34.059   c-1.621-0.234-3.278-0.361-4.964-0.361c-19.02,0-34.43,15.41-34.43,34.42c0,10.73,4.91,23.7,12.61,32.96   c1.005,1.21,2.062,2.35,3.157,3.42c5.378,5.254,11.784,8.669,18.663,8.669c1.686,0,3.341-0.215,4.963-0.602   c-4.293-1.025-8.331-3.318-11.96-6.463C128.977,125.584,127.339,123.896,125.813,122.059z"/>
	<rect x="212.534" y="68.435" style="fill:#666666;" width="113.463" height="15"/>
	<rect x="212.534" y="116.058" style="fill:#666666;" width="113.463" height="15"/>
	<rect x="212.534" y="163.68" style="fill:#666666;" width="113.463" height="15"/>
	<rect x="82.003" y="211.303" style="fill:#666666;" width="243.994" height="15"/>
	<rect x="82.003" y="258.925" style="fill:#666666;" width="243.994" height="15"/>
</g>















</svg>