<?xml version="1.0" encoding="iso-8859-1"?>
<!-- Uploaded to: SVG Repo, www.svgrepo.com, Generator: SVG Repo Mixer Tools -->
<svg height="800px" width="800px" version="1.1" id="Layer_1" xmlns="http://www.w3.org/2000/svg" xmlns:xlink="http://www.w3.org/1999/xlink" 
	 viewBox="0 0 390.206 390.206" xml:space="preserve">
<g>
	<path style="fill:#FFFFFF;" d="M289.939,301.317c-8.145,21.657-18.424,40.663-30.901,54.756
		c28.703-11.378,54.174-30.901,72.598-54.756H289.939z"/>
	<path style="fill:#FFFFFF;" d="M205.964,279.661h68.267c6.529-22.238,10.861-47.127,11.895-73.697h-80.162V279.661z"/>
	<path style="fill:#FFFFFF;" d="M266.667,301.317h-60.703v66.133C230.335,361.503,251.992,336.549,266.667,301.317z"/>
	<path style="fill:#FFFFFF;" d="M205.964,22.756v66.133h60.703C251.992,53.657,230.335,28.703,205.964,22.756z"/>
	<path style="fill:#FFFFFF;" d="M274.23,110.545h-68.267v73.697h80.226C285.091,157.737,280.76,132.784,274.23,110.545z"/>
	<path style="fill:#FFFFFF;" d="M346.828,110.545h-49.325c5.947,22.238,9.762,47.127,10.279,73.697h60.703
		C366.352,157.737,358.788,132.784,346.828,110.545z"/>
	<path style="fill:#FFFFFF;" d="M259.62,34.133c12.477,14.61,22.756,33.034,30.901,54.756H332.8
		C313.277,65.034,288.323,45.511,259.62,34.133z"/>
	<path style="fill:#FFFFFF;" d="M296.986,279.661h49.325c12.477-22.238,20.04-47.127,21.657-73.697h-60.186
		C306.747,232.469,302.933,256.905,296.986,279.661z"/>
	<path style="fill:#FFFFFF;" d="M93.22,279.661c-5.947-22.238-9.762-47.127-10.279-73.697H22.238
		c1.616,26.57,9.244,51.459,21.657,73.697H93.22z"/>
	<path style="fill:#FFFFFF;" d="M184.242,205.964h-80.162c1.099,26.57,4.848,51.459,11.895,73.697h68.267L184.242,205.964
		L184.242,205.964z"/>
	<path style="fill:#FFFFFF;" d="M130.586,356.073c-12.477-14.61-22.756-33.034-30.901-54.756H57.471
		C76.929,325.172,101.883,344.695,130.586,356.073z"/>
	<path style="fill:#FFFFFF;" d="M123.539,88.889h60.703V22.756C159.871,28.703,138.214,53.657,123.539,88.889z"/>
	<path style="fill:#FFFFFF;" d="M22.238,184.242h60.703c0.517-26.57,4.331-50.941,10.279-73.697H43.378
		C31.418,132.784,23.855,157.737,22.238,184.242z"/>
	<path style="fill:#FFFFFF;" d="M184.242,367.451v-66.133h-60.703C138.214,336.549,159.871,361.503,184.242,367.451z"/>
	<path style="fill:#FFFFFF;" d="M184.242,110.545h-68.267c-6.529,22.238-10.861,47.127-11.895,73.697h80.226v-73.697H184.242z"/>
	<path style="fill:#FFFFFF;" d="M57.988,88.889h42.279c8.145-21.657,18.424-40.663,30.901-54.756
		C101.883,45.511,76.929,65.034,57.988,88.889z"/>
</g>
<path style="fill:#56ACE0;" d="M195.103,346.828c-83.459,0-151.725-68.267-151.725-151.725S111.644,43.378,195.103,43.378
	s151.725,68.267,151.725,151.725S278.562,346.828,195.103,346.828z"/>
<path style="fill:#194F82;" d="M195.103,0C87.273,0,0,87.273,0,195.103s87.273,195.103,195.103,195.103
	s195.103-87.273,195.103-195.103S302.933,0,195.103,0z M307.846,184.242c-0.517-26.57-4.331-50.941-10.279-73.697h49.325
	c12.477,22.238,20.04,47.127,21.657,73.697H307.846z M367.968,205.964c-1.616,26.57-9.244,51.459-21.657,73.697h-49.325
	c5.948-22.238,9.762-47.127,10.279-73.697H367.968z M289.939,88.889c-8.145-21.657-18.424-40.663-30.901-54.756
	c28.703,11.378,53.657,30.901,72.598,54.756H289.939z M205.964,184.242v-73.697h68.267c6.529,22.238,10.861,47.127,11.895,73.697
	H205.964z M286.125,205.964c-1.099,26.57-4.848,51.459-11.895,73.697h-68.267v-73.697H286.125z M205.964,88.889V22.756
	c24.372,5.947,46.093,30.901,60.703,66.133H205.964z M205.964,301.317h60.703c-14.61,35.232-36.331,60.186-60.703,66.133V301.317z
	 M259.62,356.073c12.477-14.61,22.756-33.034,30.901-54.756H332.8C313.277,325.172,288.323,344.695,259.62,356.073z
	 M115.976,279.661c-6.529-22.238-10.861-47.127-11.895-73.697h80.226v73.697H115.976z M184.242,301.317v66.133
	c-24.372-5.947-46.093-30.901-60.703-66.133H184.242z M104.081,184.242c1.099-26.57,4.848-51.459,11.895-73.697h68.267v73.697
	H104.081z M100.267,88.889H57.988c18.941-24.372,43.895-43.378,72.598-54.756C118.691,48.743,107.83,67.168,100.267,88.889z
	 M93.22,110.545c-5.947,22.238-9.762,47.127-10.279,73.697H22.238c1.616-26.57,9.244-51.459,21.657-73.697H93.22z M82.36,205.964
	c0.517,26.57,4.331,50.941,10.279,73.697H43.378c-12.477-22.238-20.04-47.127-21.657-73.697H82.36z M100.267,301.317
	c8.145,21.657,18.424,40.663,30.901,54.756c-28.703-11.378-54.174-30.901-72.598-54.756H100.267z M184.242,88.889h-60.703
	c14.61-35.232,36.331-60.186,60.703-66.133V88.889z"/>
</svg>